<svg width="21" height="20" viewBox="0 0 21 20" fill="none" xmlns="http://www.w3.org/2000/svg">
<path d="M20.4448 5.22794C20.3829 5.14542 20.3159 5.08868 20.2437 5.05773C20.1715 5.02679 20.0839 5.01131 19.9807 5.01131H5.53293C5.47105 4.76373 5.39371 4.4491 5.3009 4.06742C5.20809 3.68574 5.11012 3.28858 5.00699 2.87595C4.80074 2.03006 4.3573 1.34406 3.67668 0.817959C2.99605 0.291855 2.22262 0.0288029 1.35637 0.0288029C1.19137 0.0288029 1.05215 0.0855408 0.938711 0.199013C0.825273 0.312487 0.768555 0.45175 0.768555 0.6168C0.768555 0.781853 0.825273 0.915958 0.938711 1.01912C1.05215 1.12227 1.19137 1.17385 1.35637 1.17385C1.95449 1.17385 2.48559 1.35954 2.94965 1.7309C3.41371 2.10227 3.71793 2.5768 3.8623 3.15448L5.96605 11.5412C6.04855 11.8507 6.17746 12.1395 6.35277 12.4077C6.52809 12.6759 6.73949 12.9029 6.98699 13.0885C6.49199 13.5631 6.2909 14.1562 6.38371 14.868C6.47652 15.5798 6.81168 16.1007 7.38918 16.4309C6.87355 17.1117 6.81684 17.8493 7.21902 18.6436C7.62121 19.4379 8.25543 19.8351 9.12168 19.8351C9.90543 19.8557 10.5087 19.5153 10.9315 18.8138C11.3543 18.1123 11.3801 17.4212 11.0089 16.7403H14.0407C13.6901 17.4212 13.7262 18.1123 14.149 18.8138C14.5718 19.5153 15.1751 19.8557 15.9589 19.8351C17.3614 19.7732 18.0626 19.0614 18.0626 17.6997C18.0626 16.338 17.3614 15.6262 15.9589 15.5643H8.50293C7.84293 15.5437 7.51293 15.2188 7.51293 14.5895C7.51293 13.9602 7.84293 13.6353 8.50293 13.6147H16.4229C17.0623 13.6147 17.6295 13.4238 18.1245 13.0421C18.6195 12.6604 18.9495 12.1601 19.1145 11.5412L20.5376 5.7231C20.5582 5.64057 20.5634 5.55289 20.5531 5.46005C20.5428 5.36721 20.5067 5.28984 20.4448 5.22794ZM15.9589 16.7403C16.227 16.7403 16.4539 16.8332 16.6395 17.0189C16.8251 17.2045 16.9179 17.4315 16.9179 17.6997C16.8973 18.3393 16.5725 18.6591 15.9434 18.6591C15.3143 18.6591 14.9895 18.3393 14.9689 17.6997C14.9689 17.4315 15.0668 17.2045 15.2628 17.0189C15.4587 16.8332 15.6907 16.7403 15.9589 16.7403ZM9.12168 16.7403C9.3898 16.7403 9.61668 16.8332 9.80231 17.0189C9.98793 17.2045 10.0807 17.4315 10.0807 17.6997C10.0601 18.3393 9.74043 18.6591 9.12168 18.6591C8.50293 18.6591 8.17293 18.3393 8.13168 17.6997C8.13168 17.4315 8.22965 17.2045 8.42559 17.0189C8.62152 16.8332 8.85355 16.7403 9.12168 16.7403ZM17.9698 11.2627C17.8873 11.6134 17.7017 11.9022 17.4129 12.1292C17.1242 12.3561 16.7942 12.4696 16.4229 12.4696H8.62668C8.27605 12.4696 7.95637 12.3561 7.66762 12.1292C7.37887 11.9022 7.18293 11.6134 7.0798 11.2627L5.81137 6.15636H19.2382L17.9698 11.2627Z" fill="#1F1F1F"/>
</svg>
