<svg width="40" height="40" viewBox="0 0 40 40" fill="none" xmlns="http://www.w3.org/2000/svg">
<path d="M2.91504 0.5H37.0723C38.4001 0.5 39.4788 1.56568 39.5 2.88965V37.1123C39.479 38.4347 38.401 39.4998 37.0742 39.5H2.91504C1.67324 39.4998 0.650242 38.5627 0.514648 37.3564L0.5 37.1123V2.88574C0.515463 1.56584 1.59011 0.500217 2.91504 0.5ZM26.7393 14.0156C24.7777 14.0156 23.0146 14.8549 21.7754 16.2041V14.501H15.0859V34.5879H22.0088V24.6426C22.0088 23.4067 22.1297 22.2946 22.5674 21.501C22.7797 21.116 23.0652 20.8102 23.4512 20.5967C23.84 20.3817 24.3612 20.2441 25.0684 20.2441C25.7484 20.2442 26.2157 20.4026 26.5469 20.6338C26.8791 20.8658 27.1169 21.2015 27.2861 21.6289C27.636 22.5126 27.6543 23.6771 27.6543 24.8057V34.5859H33.958L34.5801 34.8965V23.6113C34.5801 21.0298 34.3062 18.6304 33.1973 16.8711C32.0564 15.0613 30.0974 14.0222 26.9805 14.0195H26.9688C26.8926 14.0173 26.8165 14.0156 26.7393 14.0156ZM5.42285 34.5859H12.3633V14.5H5.42285V34.5859ZM8.89453 5.00977C6.71922 5.00977 4.95508 6.7739 4.95508 8.94922C4.95515 10.7563 6.17204 12.2784 7.83203 12.7422L7.68555 12.8896H8.89746C11.0712 12.8894 12.8339 11.1269 12.834 8.95312V8.94727C12.8337 6.77196 11.0694 5.00985 8.89453 5.00977Z" fill="black" stroke="black"/>
</svg>
