<svg width="26" height="42" viewBox="0 0 26 42" fill="none" xmlns="http://www.w3.org/2000/svg">
<path d="M13 19.5C13.8285 19.5 14.5 18.8285 14.5 18C14.5 17.1716 13.8285 16.5 13 16.5C12.1715 16.5 11.5 17.1716 11.5 18C11.5 18.8285 12.1715 19.5 13 19.5Z" fill="black"/>
<path d="M13 36L12.3121 36.7258L13 37.3777L13.6879 36.7258L13 36ZM25 18H24C24 19.3938 23.3546 21.1624 22.2536 23.1179C21.1677 25.0465 19.7068 27.0399 18.2256 28.8526C16.7476 30.6615 15.2668 32.2695 14.1542 33.4263C13.5985 34.0042 13.1359 34.4681 12.8131 34.7867C12.6517 34.946 12.5254 35.0689 12.4399 35.1515C12.3972 35.1928 12.3647 35.224 12.3432 35.2446C12.3324 35.2549 12.3244 35.2625 12.3192 35.2675C12.3165 35.27 12.3147 35.2718 12.3135 35.2729C12.3129 35.2734 12.3125 35.2738 12.3123 35.274C12.3121 35.2742 12.3121 35.2742 12.3121 35.2742C12.3121 35.2742 12.3121 35.2742 13 36C13.6879 36.7258 13.688 36.7257 13.6882 36.7255C13.6883 36.7254 13.6886 36.7252 13.6888 36.7249C13.6893 36.7244 13.69 36.7238 13.6909 36.723C13.6926 36.7213 13.6951 36.719 13.6982 36.716C13.7046 36.7099 13.7138 36.7012 13.7257 36.6898C13.7495 36.667 13.7844 36.6335 13.8296 36.5898C13.9199 36.5026 14.0514 36.3747 14.2181 36.2101C14.5516 35.8809 15.0265 35.4045 15.5958 34.8127C16.7332 33.6301 18.2524 31.9807 19.7744 30.118C21.2932 28.2591 22.8323 26.1667 23.9964 24.0991C25.1454 22.0582 26 19.9199 26 18H25ZM13 36C13.6879 35.2742 13.6879 35.2742 13.6879 35.2742C13.6879 35.2742 13.6879 35.2742 13.6877 35.274C13.6875 35.2738 13.6871 35.2734 13.6865 35.2729C13.6853 35.2718 13.6835 35.27 13.6808 35.2675C13.6756 35.2625 13.6676 35.2549 13.6568 35.2446C13.6353 35.224 13.6028 35.1928 13.5601 35.1515C13.4746 35.0689 13.3483 34.946 13.1869 34.7867C12.8641 34.4681 12.4015 34.0042 11.8458 33.4263C10.7332 32.2695 9.25241 30.6615 7.77437 28.8526C6.29324 27.0399 4.83227 25.0465 3.74638 23.1179C2.6454 21.1624 2 19.3938 2 18H1H0C0 19.9199 0.854597 22.0582 2.00362 24.0991C3.16773 26.1667 4.70676 28.2591 6.22563 30.118C7.74758 31.9807 9.26685 33.6301 10.4042 34.8127C10.9735 35.4045 11.4484 35.8809 11.7819 36.2101C11.9486 36.3747 12.0801 36.5026 12.1704 36.5898C12.2156 36.6335 12.2505 36.667 12.2743 36.6898C12.2862 36.7012 12.2954 36.7099 12.3018 36.716C12.3049 36.719 12.3074 36.7213 12.3091 36.723C12.31 36.7238 12.3107 36.7244 12.3112 36.7249C12.3114 36.7252 12.3117 36.7254 12.3118 36.7255C12.312 36.7257 12.3121 36.7258 13 36ZM1 18H2C2 11.9249 6.92486 7 13 7V6V5C5.82029 5 0 10.8203 0 18H1ZM13 6V7C19.0752 7 24 11.9249 24 18H25H26C26 10.8203 20.1797 5 13 5V6ZM13 19.5V20.5C14.3807 20.5 15.5 19.3807 15.5 18H14.5H13.5C13.5 18.2762 13.2762 18.5 13 18.5V19.5ZM14.5 18H15.5C15.5 16.6193 14.3807 15.5 13 15.5V16.5V17.5C13.2762 17.5 13.5 17.7239 13.5 18H14.5ZM13 16.5V15.5C11.6193 15.5 10.5 16.6193 10.5 18H11.5H12.5C12.5 17.7239 12.7238 17.5 13 17.5V16.5ZM11.5 18H10.5C10.5 19.3807 11.6193 20.5 13 20.5V19.5V18.5C12.7238 18.5 12.5 18.2762 12.5 18H11.5Z" fill="black"/>
</svg>
