<svg width="41" height="42" viewBox="0 0 41 42" fill="none" xmlns="http://www.w3.org/2000/svg">
<path d="M17.827 41.3516C16.4432 41.3516 15.1001 41.2159 13.7977 40.9446C12.4953 40.7004 11.2336 40.3273 10.0126 39.8253C8.79155 39.3233 7.62482 38.6925 6.51235 37.9328C5.39989 37.2002 4.36882 36.359 3.41915 35.4094C3.25635 35.2466 3.17495 35.0431 3.17495 34.7989C3.17495 34.5547 3.25635 34.3512 3.41915 34.1884C3.58195 34.0256 3.77867 33.9442 4.0093 33.9442C4.23994 33.9442 4.43665 34.0256 4.59945 34.1884C5.49485 35.0838 6.44452 35.8706 7.44845 36.549C8.47952 37.2273 9.55129 37.7971 10.6638 38.2584C11.7762 38.7196 12.9294 39.0724 14.1233 39.3166C15.3443 39.5336 16.5788 39.6422 17.827 39.6422C19.048 39.6422 20.269 39.5336 21.49 39.3166C22.6838 39.0724 23.837 38.7196 24.9495 38.2584C26.0619 37.7971 27.1337 37.2273 28.1648 36.549C29.1687 35.8706 30.1184 35.0838 31.0138 34.1884C31.882 33.3201 32.6553 32.3704 33.3337 31.3394C34.012 30.3354 34.5818 29.2704 35.0431 28.1444C35.5043 27.0184 35.8571 25.8584 36.1013 24.6646C36.3455 23.4707 36.4676 22.2497 36.4676 21.0016C36.4676 19.7534 36.3455 18.5324 36.1013 17.3386C35.8571 16.1447 35.5043 14.9847 35.0431 13.8587C34.5818 12.7327 34.012 11.6677 33.3337 10.6638C32.6553 9.6327 31.882 8.68303 31.0138 7.81476C30.1184 6.91936 29.1687 6.1325 28.1648 5.45416C27.1337 4.77583 26.0619 4.20603 24.9495 3.74476C23.837 3.2835 22.6838 2.93076 21.49 2.68656C20.269 2.4695 19.048 2.36096 17.827 2.36096C16.5788 2.36096 15.3443 2.4695 14.1233 2.68656C12.9294 2.93076 11.7762 3.2835 10.6638 3.74476C9.55129 4.20603 8.47952 4.77583 7.44845 5.45416C6.44452 6.1325 5.49485 6.91936 4.59945 7.81476C4.43665 7.97756 4.23994 8.05896 4.0093 8.05896C3.77867 8.05896 3.58195 7.97756 3.41915 7.81476C3.25635 7.65196 3.17495 7.44846 3.17495 7.20426C3.17495 6.96006 3.25635 6.75656 3.41915 6.59376C4.36882 5.6441 5.39989 4.80296 6.51235 4.07036C7.62482 3.31063 8.79155 2.67978 10.0126 2.17781C11.2336 1.67585 12.4953 1.30276 13.7977 1.05856C15.1001 0.787228 16.4432 0.651562 17.827 0.651562C19.1836 0.651562 20.5132 0.787228 21.8156 1.05856C23.118 1.30276 24.3797 1.67585 25.6007 2.17781C26.8217 2.67978 27.9884 3.31063 29.1009 4.07036C30.2133 4.80296 31.2444 5.6441 32.1941 6.59376C33.1709 7.57056 34.0256 8.6152 34.7582 9.72766C35.4908 10.8401 36.108 12.0001 36.61 13.2075C37.112 14.4149 37.4986 15.6834 37.77 17.013C38.0413 18.3154 38.177 19.6449 38.177 21.0016C38.177 22.3582 38.0413 23.6878 37.77 24.9902C37.4986 26.3197 37.112 27.5882 36.61 28.7956C36.108 30.003 35.4908 31.163 34.7582 32.2755C34.0256 33.3879 33.1709 34.4326 32.1941 35.4094C31.2444 36.359 30.2133 37.2002 29.1009 37.9328C27.9884 38.6925 26.8217 39.3233 25.6007 39.8253C24.3797 40.3273 23.118 40.7004 21.8156 40.9446C20.5132 41.2159 19.1836 41.3516 17.827 41.3516ZM10.1754 9.11716H3.37845C3.16139 9.11716 2.97145 9.03576 2.80865 8.87296C2.64585 8.71016 2.56445 8.50666 2.56445 8.26246V1.50626C2.56445 1.26206 2.64585 1.05856 2.80865 0.895763C2.97145 0.732964 3.16139 0.651562 3.37845 0.651562C3.62265 0.651562 3.82615 0.732964 3.98895 0.895763C4.15175 1.05856 4.23315 1.26206 4.23315 1.50626V7.44846H10.1754C10.4196 7.44846 10.6231 7.52986 10.7859 7.69266C10.9487 7.85546 11.0301 8.04539 11.0301 8.26246C11.0301 8.50666 10.9487 8.71016 10.7859 8.87296C10.6231 9.03576 10.4196 9.11716 10.1754 9.11716Z" fill="#AE873E"/>
</svg>
