<svg width="19" height="19" viewBox="0 0 19 19" fill="none" xmlns="http://www.w3.org/2000/svg">
<path d="M18.5599 17.1509L13.7631 12.3231C14.2789 11.7248 14.6812 11.0543 14.97 10.3116C15.2589 9.56884 15.4239 8.80547 15.4652 8.02147C15.5064 6.928 15.3414 5.91706 14.97 4.98864C14.5986 4.03959 14.0674 3.21949 13.3762 2.52833C12.6851 1.83718 11.8753 1.2956 10.9469 0.903603C9.99782 0.511604 8.98688 0.336237 7.91404 0.377501C6.96499 0.418762 6.07784 0.625078 5.25257 0.996445C4.40668 1.36781 3.66911 1.86813 3.03984 2.49739C2.41058 3.12665 1.91027 3.86423 1.5389 4.71012C1.16754 5.53538 0.96122 6.42253 0.919957 7.37158C0.878694 8.44442 1.05406 9.45536 1.44606 10.4044C1.83806 11.3328 2.37964 12.1426 3.07079 12.8338C3.76195 13.5249 4.58205 14.0562 5.5311 14.4276C6.45952 14.7989 7.47046 14.964 8.56393 14.9227C9.34793 14.8815 10.1113 14.7164 10.854 14.4276C11.5968 14.1387 12.2673 13.7364 12.8656 13.2206L17.6934 18.0174C17.8172 18.1412 17.9616 18.2031 18.1266 18.2031C18.2917 18.2031 18.4361 18.1412 18.5599 18.0174C18.6837 17.8937 18.7456 17.7492 18.7456 17.5842C18.7456 17.4191 18.6837 17.2747 18.5599 17.1509ZM2.31258 9.04273C2.06501 7.99053 2.0908 6.96927 2.38995 5.97896C2.68911 4.98864 3.19974 4.12212 3.92184 3.37938C4.66458 2.65728 5.5311 2.14665 6.52141 1.84749C7.51172 1.54834 8.53299 1.52255 9.58519 1.77013C10.5961 1.99707 11.54 2.54897 12.4169 3.42581C13.2937 4.30264 13.8456 5.24654 14.0725 6.25748C14.3201 7.30969 14.2943 8.33095 13.9952 9.32126C13.696 10.3116 13.1854 11.1781 12.4633 11.9208C11.7206 12.6429 10.854 13.1536 9.86372 13.4527C8.8734 13.7519 7.85214 13.7777 6.79994 13.5301C5.78899 13.3031 4.8451 12.7512 3.96826 11.8744C3.09142 10.9976 2.53953 10.0537 2.31258 9.04273Z" fill="#1F1F1F"/>
</svg>
