<svg width="41" height="42" viewBox="0 0 41 42" fill="none" xmlns="http://www.w3.org/2000/svg">
<path d="M34.2698 14.571C34.2698 12.6445 33.9035 10.8401 33.1709 9.15786C32.4383 7.4756 31.4479 6.00361 30.1998 4.74191C28.9516 3.48021 27.4729 2.48306 25.7635 1.75046C24.0812 1.01786 22.2768 0.651562 20.3504 0.651562C18.4239 0.651562 16.6195 1.01786 14.9373 1.75046C13.255 2.48306 11.783 3.48021 10.5213 4.74191C9.2596 6.00361 8.26245 7.4756 7.52985 9.15786C6.79725 10.8401 6.43095 12.6445 6.43095 14.571C5.42702 14.7066 4.53162 15.1272 3.74475 15.8327C2.95789 16.5381 2.56445 17.637 2.56445 19.1294V26.4147C2.56445 28.1241 3.05285 29.3247 4.02965 30.0166C5.00645 30.7085 6.06465 31.0545 7.20425 31.0545H9.44275C9.65982 31.0545 9.84297 30.9798 9.9922 30.8306C10.1414 30.6814 10.2161 30.4982 10.2161 30.2812V15.3036C10.2161 15.0865 10.1414 14.9033 9.9922 14.7541C9.84297 14.6049 9.65982 14.5303 9.44275 14.5303H7.97755C7.97755 12.8209 8.30315 11.22 8.95435 9.72766C9.60555 8.20819 10.4874 6.89223 11.5999 5.77976C12.7123 4.6673 14.0283 3.78546 15.5478 3.13426C17.0401 2.48306 18.641 2.15746 20.3504 2.15746C22.0598 2.15746 23.6606 2.48306 25.153 3.13426C26.6724 3.78546 27.9884 4.6673 29.1009 5.77976C30.2133 6.89223 31.0952 8.20819 31.7464 9.72766C32.3976 11.22 32.7232 12.8209 32.7232 14.5303H31.258C31.0409 14.5303 30.8577 14.6049 30.7085 14.7541C30.5593 14.9033 30.4847 15.0865 30.4847 15.3036V30.2405C30.4847 30.4575 30.5593 30.6407 30.7085 30.7899C30.8577 30.9391 31.0409 31.0138 31.258 31.0138H32.7232C32.6146 33.6728 31.9159 35.4433 30.6271 36.3251C29.3383 37.2069 27.4186 37.7021 24.8681 37.8107V37.2816C24.8681 36.8746 24.7188 36.515 24.4204 36.203C24.1219 35.891 23.7556 35.735 23.3215 35.735H18.4375C18.0305 35.735 17.6709 35.891 17.3589 36.203C17.0469 36.515 16.8909 36.8746 16.8909 37.2816V39.805C16.8909 40.2391 17.0469 40.6054 17.3589 40.9039C17.6709 41.2023 18.0305 41.3516 18.4375 41.3516H23.3215C23.7556 41.3516 24.1219 41.2023 24.4204 40.9039C24.7188 40.6054 24.8681 40.2391 24.8681 39.805V39.3573C27.3372 39.2487 29.4943 38.7196 31.3394 37.77C33.1844 36.8203 34.1612 34.5547 34.2698 30.9731C35.2737 30.8645 36.1691 30.4575 36.956 29.7521C37.7428 29.0466 38.1363 27.9341 38.1363 26.4147V19.1294C38.1363 17.6099 37.7428 16.5042 36.956 15.8123C36.1691 15.1204 35.2737 14.7066 34.2698 14.571ZM8.66945 16.0362V29.4672H7.16355C6.59375 29.4672 5.93577 29.2908 5.1896 28.9381C4.44344 28.5853 4.07035 27.7306 4.07035 26.374V19.1294C4.07035 17.7727 4.43665 16.918 5.16925 16.5653C5.90185 16.2125 6.56662 16.0362 7.16355 16.0362H8.66945ZM23.3215 38.6247V39.805H18.4375V37.2816H23.3215V38.6247ZM36.5897 26.4147C36.5897 27.7442 36.2234 28.5921 35.4908 28.9584C34.7582 29.3247 34.0934 29.5079 33.4965 29.5079H32.0313V16.0769H33.5372C34.107 16.0769 34.7649 16.2532 35.5111 16.606C36.2573 16.9587 36.6304 17.8134 36.6304 19.1701L36.5897 26.4147Z" fill="#AE873E"/>
</svg>
