<svg width="40" height="40" viewBox="0 0 40 40" fill="none" xmlns="http://www.w3.org/2000/svg">
<path d="M0 40C0 26.6667 0 13.3333 0 0C13.3333 0 26.6667 0 40 0C40 13.3333 40 26.6667 40 40C26.6667 40 13.3333 40 0 40ZM31.1 31.3C28.0958 26.9253 25.106 22.5718 22.112 18.2122C23.3542 16.7676 24.5948 15.3236 25.8366 13.8794C26.7625 12.8025 27.6888 11.7252 28.6161 10.6467C28.656 10.6003 28.696 10.5538 28.7359 10.5073C29.2803 9.87419 29.8255 9.24113 30.3707 8.607C30.3552 8.60572 30.3423 8.604 30.3318 8.60297C30.3137 8.6012 30.3019 8.6005 30.2897 8.6005C30.1771 8.60045 30.0644 8.60034 29.9517 8.60023L29.951 8.59973C29.4679 8.59926 28.9853 8.59929 28.5022 8.60375C28.4508 8.60425 28.3857 8.64225 28.3503 8.683C28.0382 9.04112 27.7288 9.40156 27.4195 9.762C27.4166 9.76531 27.4133 9.76818 27.4104 9.77148C27.316 9.88151 27.222 9.99204 27.1275 10.102C26.9341 10.327 26.7407 10.552 26.5473 10.777C24.9445 12.6414 23.3418 14.5057 21.7388 16.3703C21.6362 16.4895 21.5327 16.6078 21.4276 16.729C21.3666 16.7994 21.3053 16.8711 21.2425 16.9438C21.202 16.8849 21.1625 16.8281 21.1245 16.773C21.1235 16.7717 21.1226 16.7703 21.1216 16.7689C21.1068 16.7474 21.092 16.7261 21.0774 16.7049C21.047 16.661 21.0176 16.6182 20.9878 16.5748C19.8682 14.9447 18.7485 13.3145 17.6292 11.6845C16.9482 10.6927 16.267 9.70075 15.5867 8.70825C15.5774 8.69462 15.5677 8.68148 15.5581 8.67C15.5202 8.62485 15.4766 8.5975 15.4005 8.5975C13.7853 8.60035 12.1702 8.60046 10.5552 8.60056C10.4316 8.60057 10.3081 8.60017 10.1846 8.60018C9.79814 8.60019 9.41219 8.6007 9.02575 8.60075C9.00331 8.60075 8.98087 8.60287 8.95424 8.60538C8.93992 8.60673 8.92439 8.60819 8.907 8.6095C11.7987 12.8205 14.6805 17.0168 17.5675 21.2208C14.6815 24.5773 11.7995 27.929 8.90075 31.3003C8.96576 31.3003 9.02992 31.2997 9.09426 31.2997C9.18802 31.2996 9.28112 31.2995 9.37367 31.2995C9.46039 31.2994 9.54662 31.2993 9.63246 31.2993C10.0041 31.299 10.3688 31.2998 10.733 31.3025C10.8253 31.3032 10.8842 31.2755 10.9435 31.206C11.5157 30.5345 12.0913 29.8658 12.6665 29.197C14.3505 27.2388 16.0341 25.2804 17.7181 23.3224C17.7283 23.3105 17.7385 23.2987 17.7487 23.2868C17.759 23.2749 17.7697 23.2634 17.78 23.2515C17.9967 22.9995 18.2133 22.7478 18.433 22.4923C18.4355 22.4951 18.4374 22.4973 18.4397 22.4999C18.4525 22.5144 18.4632 22.5256 18.4718 22.5365C18.4748 22.5403 18.4776 22.5439 18.4803 22.5478C18.54 22.6347 18.5994 22.7211 18.6591 22.8081L18.6599 22.8093C18.8127 23.0317 18.9654 23.2542 19.1182 23.4767C19.6692 24.2788 20.2207 25.0814 20.7712 25.8837C20.8472 25.9944 20.9228 26.1045 20.9987 26.2152C21.2408 26.5678 21.4828 26.9205 21.7248 27.2732C21.7576 27.3209 21.7903 27.3686 21.823 27.4163C21.8243 27.4181 21.8256 27.42 21.8269 27.4219C21.854 27.4615 21.8812 27.501 21.9083 27.5406C22.2495 28.0378 22.5907 28.5351 22.9317 29.0324C23.0762 29.2432 23.2207 29.454 23.3652 29.6648C23.7133 30.1726 24.0613 30.6806 24.409 31.1888C24.4166 31.1999 24.4243 31.2102 24.4322 31.2195C24.4391 31.2277 24.4462 31.2351 24.4534 31.242C24.5002 31.2864 24.5543 31.303 24.632 31.303C26.7445 31.2995 28.857 31.3005 30.9693 31.3005L31.1 31.3Z" fill="black"/>
<path d="M11.5695 10.0755C11.7307 10.0755 11.8915 10.0755 12.0515 10.0754C12.8799 10.0753 13.6937 10.0751 14.5072 10.0795C14.551 10.0798 14.607 10.1292 14.6363 10.1707C15.2563 11.0527 15.8735 11.937 16.4913 12.8208C17.81 14.7078 19.1293 16.5948 20.4475 18.482C21.7683 20.3728 23.0878 22.2645 24.4085 24.1553C25.7175 26.0288 27.0275 27.9018 28.3368 29.7753C28.3577 29.8055 28.3775 29.837 28.4142 29.8927C28.3557 29.8927 28.3173 29.8927 28.279 29.8927C28.1074 29.8927 27.9358 29.8926 27.7642 29.8926C27.7066 29.8925 27.6489 29.8926 27.5912 29.8926C26.906 29.8924 26.2208 29.8922 25.5355 29.8937C25.5333 29.8937 25.5313 29.8937 25.529 29.8938C25.4845 29.8938 25.4488 29.8875 25.4176 29.8703C25.3913 29.8559 25.3684 29.8336 25.3455 29.8008C23.9577 27.8098 22.5674 25.8205 21.1773 23.8312L21.1766 23.8302L21.1747 23.8272C21.0325 23.6236 20.8903 23.4201 20.748 23.2165C20.7313 23.1926 20.7144 23.1688 20.6977 23.1448C20.6926 23.1376 20.6875 23.1303 20.6825 23.1231C18.7636 20.3767 16.8449 17.6304 14.926 14.8843C14.9209 14.8771 14.9158 14.8698 14.9108 14.8625C14.2688 13.9437 13.6267 13.0251 12.9847 12.1065C12.5296 11.4554 12.0745 10.8044 11.6195 10.1533C11.6113 10.1416 11.6037 10.1295 11.5935 10.1133L11.5912 10.1101C11.585 10.1003 11.5782 10.089 11.5695 10.0755Z" fill="black"/>
<path fill-rule="evenodd" clip-rule="evenodd" d="M28.7359 10.5073C28.696 10.5538 28.656 10.6003 28.6161 10.6467L28.7359 10.5073ZM30.3318 8.60297C30.3137 8.6012 30.3019 8.6005 30.2897 8.6005C30.1771 8.60045 30.0644 8.60034 29.9517 8.60023L29.951 8.59973C29.4679 8.59926 28.9853 8.59929 28.5022 8.60375C28.4508 8.60425 28.3857 8.64225 28.3503 8.683C28.0382 9.04112 27.7288 9.40156 27.4195 9.762C27.4166 9.76531 27.4133 9.76818 27.4104 9.77148C27.316 9.88151 27.222 9.99204 27.1275 10.102C26.9341 10.327 26.7407 10.552 26.5473 10.777C24.9445 12.6414 23.3418 14.5057 21.7388 16.3703C21.6362 16.4895 21.5327 16.6078 21.4276 16.729C21.3666 16.7994 21.3053 16.8711 21.2425 16.9438C21.202 16.8849 21.1625 16.8281 21.1245 16.773L21.2425 16.9438C21.3053 16.8711 21.3666 16.7994 21.4276 16.729C21.5327 16.6078 21.6362 16.4895 21.7388 16.3703C23.3418 14.5057 24.9445 12.6414 26.5473 10.777L27.1275 10.102C27.2249 9.98872 27.3222 9.87536 27.4195 9.762C27.7288 9.40156 28.0382 9.04112 28.3503 8.683C28.3857 8.64225 28.4508 8.60425 28.5022 8.60375C28.9853 8.59929 29.4686 8.59976 29.9517 8.60023C30.0644 8.60034 30.1771 8.60045 30.2897 8.6005C30.3019 8.6005 30.3137 8.6012 30.3318 8.60297ZM21.1216 16.7689C21.1068 16.7474 21.092 16.7261 21.0774 16.7049C21.047 16.661 21.0176 16.6182 20.9878 16.5748M21.9083 27.5406C21.8812 27.501 21.854 27.4615 21.8269 27.4219L21.823 27.4163C21.8514 27.4577 21.8799 27.4991 21.9083 27.5406ZM21.7248 27.2732L20.9987 26.2152L20.7712 25.8837C20.2207 25.0814 19.6692 24.2788 19.1182 23.4767C18.9654 23.2542 18.8127 23.0317 18.6599 22.8093L18.6591 22.8081L18.4803 22.5478C18.4776 22.5439 18.4748 22.5403 18.4718 22.5365C18.4632 22.5256 18.4525 22.5144 18.4397 22.4999L18.433 22.4923L17.78 23.2515L17.7487 23.2868C17.7385 23.2987 17.7283 23.3105 17.7181 23.3224C16.0341 25.2804 14.3505 27.2388 12.6665 29.197M8.90075 31.3003L17.5675 21.2208L8.907 8.6095C8.92439 8.60819 8.93992 8.60673 8.95424 8.60538C8.98087 8.60287 9.00331 8.60075 9.02575 8.60075C9.41219 8.6007 9.79814 8.60019 10.1846 8.60018C10.3081 8.60017 10.4316 8.60057 10.5552 8.60056C12.1702 8.60046 13.7853 8.60035 15.4005 8.5975C15.4766 8.5975 15.5202 8.62485 15.5581 8.67C15.5677 8.68148 15.5774 8.69462 15.5867 8.70825C15.5405 8.6405 15.4963 8.5975 15.4005 8.5975C13.6621 8.60057 11.9231 8.60012 10.1846 8.60018C9.79814 8.60019 9.41219 8.6007 9.02575 8.60075C9.00331 8.60075 8.98087 8.60287 8.95424 8.60538C8.93992 8.60673 8.92439 8.60819 8.907 8.6095L17.5675 21.2208L8.90075 31.3003ZM21.7248 27.2732C21.4068 26.8099 21.0893 26.3471 20.7712 25.8837C20.2207 25.0814 19.6692 24.2788 19.1182 23.4767C18.9054 23.1669 18.693 22.8576 18.4803 22.5478C18.4776 22.5439 18.4748 22.5403 18.4718 22.5365M11.5935 10.1133L11.5912 10.1101C11.6024 10.1279 11.6108 10.1408 11.6195 10.1533L12.9847 12.1065L14.9108 14.8625C14.9158 14.8698 14.9209 14.8771 14.926 14.8843C16.8449 17.6304 18.7636 20.3767 20.6825 23.1231L20.6977 23.1448L20.748 23.2165L21.1747 23.8272L21.1766 23.8302L21.1773 23.8312C22.5674 25.8205 23.9577 27.8098 25.3455 29.8008C25.3684 29.8336 25.3913 29.8559 25.4176 29.8703M12.0515 10.0754C11.8915 10.0755 11.7307 10.0755 11.5695 10.0755L12.0515 10.0754ZM11.5935 10.1133C11.6037 10.1295 11.6113 10.1416 11.6195 10.1533L11.5935 10.1133ZM11.6195 10.1533C12.0745 10.8044 12.5296 11.4554 12.9847 12.1065L11.6195 10.1533ZM12.9847 12.1065C13.6267 13.0251 14.2688 13.9437 14.9108 14.8625L12.9847 12.1065ZM14.9108 14.8625L14.926 14.8843L14.9108 14.8625ZM14.926 14.8843C16.8667 17.6618 18.8073 20.4393 20.748 23.2165L14.926 14.8843ZM20.748 23.2165L21.1747 23.8272L20.748 23.2165ZM21.1747 23.8272C22.5658 25.8178 23.9568 27.8085 25.3455 29.8008L21.1747 23.8272ZM25.3455 29.8008C25.3684 29.8336 25.3913 29.8559 25.4176 29.8703L25.3455 29.8008ZM27.5912 29.8926C27.6489 29.8926 27.7066 29.8925 27.7642 29.8926C27.9358 29.8926 28.1074 29.8927 28.279 29.8927C28.0498 29.8927 27.8204 29.8927 27.5912 29.8926Z" fill="black"/>
</svg>
