<svg width="21" height="19" viewBox="0 0 21 19" fill="none" xmlns="http://www.w3.org/2000/svg">
<path d="M10.772 18.1992C10.6276 18.1992 10.4883 18.1734 10.3542 18.1219C10.2201 18.0703 10.1015 18.0032 9.99835 17.9207C9.58572 17.5493 9.18856 17.1986 8.80688 16.8685C8.4252 16.5384 8.05899 16.2289 7.70825 15.9401C6.69731 15.0735 5.76889 14.2638 4.923 13.5107C4.07711 12.7577 3.34469 12.0098 2.72574 11.267C2.0449 10.4624 1.54459 9.66293 1.2248 8.86862C0.905011 8.07431 0.745117 7.2542 0.745117 6.40831C0.745117 5.58305 0.88438 4.79905 1.16291 4.05632C1.44143 3.31358 1.82827 2.66369 2.32343 2.10664C2.83922 1.54959 3.44269 1.12149 4.13384 0.82233C4.825 0.523172 5.56257 0.373594 6.34657 0.373594C6.92425 0.373594 7.47615 0.466436 8.00225 0.652121C8.52835 0.837803 9.02867 1.10601 9.50319 1.45675C9.73014 1.64243 9.95193 1.84359 10.1686 2.06022C10.3852 2.27685 10.5863 2.51927 10.772 2.78748C10.9577 2.51927 11.1537 2.27685 11.36 2.06022C11.5663 1.84359 11.7933 1.64243 12.0409 1.45675C12.4948 1.10601 12.9899 0.837803 13.5263 0.652121C14.0628 0.466436 14.6198 0.373594 15.1975 0.373594C15.9609 0.373594 16.6881 0.523172 17.3793 0.82233C18.0704 1.12149 18.6739 1.54959 19.1897 2.10664C19.7055 2.66369 20.0975 3.31358 20.3657 4.05632C20.6339 4.79905 20.768 5.58305 20.768 6.40831C20.768 7.2542 20.6081 8.07431 20.2883 8.86862C19.9685 9.66293 19.4682 10.4624 18.7874 11.267C18.1891 12.0098 17.4618 12.7577 16.6056 13.5107C15.7494 14.2638 14.8158 15.0735 13.8049 15.9401C13.4748 16.2289 13.1137 16.5384 12.7217 16.8685C12.3297 17.1986 11.9377 17.5493 11.5457 17.9207C11.4426 18.0032 11.3239 18.0703 11.1898 18.1219C11.0557 18.1734 10.9165 18.1992 10.772 18.1992ZM6.34657 1.54959C5.72763 1.54959 5.14994 1.66822 4.61353 1.90548C4.07711 2.14275 3.60258 2.47801 3.18995 2.91127C2.77732 3.36516 2.46269 3.89127 2.24606 4.48958C2.02943 5.08789 1.92111 5.72747 1.92111 6.40831C1.92111 7.10978 2.06038 7.79062 2.3389 8.45083C2.61743 9.11104 3.04553 9.80219 3.62321 10.5243C4.2009 11.2258 4.90752 11.9427 5.7431 12.6751C6.57868 13.4076 7.49162 14.1967 8.48193 15.0426C8.81204 15.3521 9.17309 15.6719 9.56509 16.002C9.95709 16.3321 10.3594 16.6725 10.772 17.0232C11.1847 16.6725 11.5818 16.3321 11.9635 16.002C12.3452 15.6719 12.7114 15.3521 13.0621 15.0426C14.0524 14.1967 14.9602 13.4076 15.7855 12.6751C16.6107 11.9427 17.3122 11.2258 17.8899 10.5243C18.4882 9.80219 18.9266 9.11104 19.2052 8.45083C19.4837 7.79062 19.6229 7.10978 19.6229 6.40831C19.6229 5.72747 19.5095 5.08789 19.2825 4.48958C19.0556 3.89127 18.7358 3.36516 18.3232 2.91127C17.9312 2.47801 17.4618 2.14275 16.9151 1.90548C16.3683 1.66822 15.7958 1.54959 15.1975 1.54959C14.7436 1.54959 14.3155 1.6218 13.9132 1.76622C13.5109 1.91064 13.124 2.11696 12.7527 2.38517C12.4226 2.63274 12.1492 2.90095 11.9326 3.1898C11.7159 3.47864 11.5354 3.73653 11.391 3.96348C11.3291 4.06664 11.2414 4.14916 11.1279 4.21106C11.0145 4.27295 10.8958 4.3039 10.772 4.3039C10.6276 4.3039 10.4987 4.27295 10.3852 4.21106C10.2717 4.14916 10.184 4.06664 10.1221 3.96348C9.99835 3.73653 9.82298 3.47864 9.59604 3.1898C9.36909 2.90095 9.09056 2.63274 8.76046 2.38517C8.40972 2.11696 8.02804 1.91064 7.61541 1.76622C7.20278 1.6218 6.77983 1.54959 6.34657 1.54959Z" fill="#1F1F1F"/>
</svg>
