<svg width="41" height="26" viewBox="0 0 41 26" fill="none" xmlns="http://www.w3.org/2000/svg">
<g clip-path="url(#clip0_134_584)">
<g clip-path="url(#clip1_134_584)">
<g clip-path="url(#clip2_134_584)">
<path opacity="0.07" d="M37.8226 0.910156H4.13836C2.34889 0.910156 0.980469 2.26433 0.980469 4.03516V22.7852C0.980469 24.556 2.45415 25.9102 4.13836 25.9102H37.8226C39.6121 25.9102 40.9805 24.556 40.9805 22.7852V4.03516C40.9805 2.26433 39.5068 0.910156 37.8226 0.910156Z" fill="white"/>
<path d="M37.8694 1.91016C39.0305 1.91016 39.9805 2.85107 39.9805 4.00107V22.8193C39.9805 23.9693 39.0305 24.9102 37.8694 24.9102H4.09158C2.93047 24.9102 1.98047 23.9693 1.98047 22.8193V4.00107C1.98047 2.85107 2.93047 1.91016 4.09158 1.91016H37.8694Z" fill="#006FCF"/>
<path d="M23.9805 21.891V12.9102L39.9805 12.9241V15.4047L38.1316 17.3798L39.9805 19.3709V21.9038H37.0277L35.4585 20.174L33.8999 21.9102L23.9805 21.8889V21.891Z" fill="white"/>
<path d="M24.9805 20.9102V13.9102H30.9805V15.5222H26.9231V16.6175H30.8836V18.2029H26.9231V19.279H30.9805V20.9102H24.9805Z" fill="#006FCF"/>
<path d="M30.9805 20.9081L34.2669 17.4054L30.9805 13.9102H33.5239L35.5322 16.1285L37.5469 13.9113H39.9805V13.9656L36.7645 17.4054L39.9805 20.8101V20.9091H37.5213L35.4778 18.6695L33.4546 20.9102H30.9805V20.9081Z" fill="#006FCF"/>
<path d="M24.8966 4.91016H28.7114L30.0509 7.98925V4.91016H34.7587L35.5714 7.21761L36.3853 4.91016H39.9805V13.9102H20.9805L24.8966 4.91016Z" fill="white"/>
<path d="M25.8499 5.91016L22.9805 12.9102H24.9485L25.4897 11.5083H28.4221L28.9633 12.9102H30.9805L28.1229 5.91016H25.8499ZM26.0959 9.93681L26.9569 7.70867L27.8159 9.93681H26.0959Z" fill="#006FCF"/>
<path d="M30.9805 12.8942V5.91016L33.9855 5.92079L35.5334 10.2142L37.0899 5.91122H39.9805V12.8932L38.1204 12.9102V8.11375L36.363 12.8932H34.6632L32.8716 8.09779V12.8942H30.9816H30.9805Z" fill="#006FCF"/>
</g>
</g>
</g>
<defs>
<clipPath id="clip0_134_584">
<rect width="40" height="25" fill="white" transform="translate(0.980469 0.910156)"/>
</clipPath>
<clipPath id="clip1_134_584">
<rect width="40" height="25" fill="white" transform="translate(0.980469 0.910156)"/>
</clipPath>
<clipPath id="clip2_134_584">
<rect width="40" height="25" fill="white" transform="translate(0.980469 0.910156)"/>
</clipPath>
</defs>
</svg>
