<svg width="41" height="26" viewBox="0 0 41 26" fill="none" xmlns="http://www.w3.org/2000/svg">
<g clip-path="url(#clip0_134_596)">
<g clip-path="url(#clip1_134_596)">
<g clip-path="url(#clip2_134_596)">
<path d="M36.4879 0.910156H4.47306C4.3397 0.910156 4.2061 0.910156 4.07298 0.910864C3.96059 0.911808 3.84843 0.912987 3.73604 0.916054C3.49123 0.92266 3.2443 0.937288 3.00256 0.980699C2.76012 1.02229 2.52522 1.09982 2.30559 1.21073C1.86408 1.43559 1.50521 1.79493 1.28065 2.23703C1.16968 2.45702 1.09225 2.69241 1.05092 2.93538C1.00709 3.17768 0.992721 3.42469 0.986124 3.66959C0.983252 3.78203 0.981524 3.89449 0.98094 4.00697C0.980469 4.14003 0.980469 4.27357 0.980469 4.40734V22.413C0.980469 22.5468 0.980469 22.6801 0.98094 22.8139C0.981647 22.9262 0.983061 23.0387 0.986124 23.1512C0.992721 23.3957 1.00733 23.6429 1.05092 23.885C1.09216 24.1279 1.16952 24.3633 1.28041 24.5833C1.3919 24.8031 1.53743 25.0037 1.7116 25.1779C1.88546 25.3523 2.08588 25.4981 2.30536 25.6096C2.52849 25.7236 2.75704 25.796 3.00279 25.8401C3.2443 25.8833 3.49123 25.8979 3.73604 25.9045C3.84843 25.9071 3.96059 25.9085 4.07298 25.9093C4.2061 25.9102 4.3397 25.9102 4.47306 25.9102H36.4879C36.621 25.9102 36.7546 25.9102 36.8878 25.9093C36.9999 25.9088 37.1121 25.9071 37.2249 25.9045C37.4693 25.8979 37.7162 25.8833 37.9584 25.8401C38.2009 25.7985 38.4358 25.7208 38.6554 25.6096C39.0967 25.3845 39.4554 25.0252 39.6803 24.5833C39.7941 24.3599 39.8662 24.1311 39.9098 23.885C39.9536 23.6429 39.9678 23.3957 39.9744 23.1512C39.9774 23.0387 39.9791 22.9262 39.9796 22.8139C39.9805 22.6801 39.9805 22.5468 39.9805 22.413V4.40757C39.9805 4.2738 39.9805 4.14027 39.9796 4.00673C39.9791 3.89433 39.9774 3.78195 39.9744 3.66959C39.9678 3.42469 39.9536 3.17768 39.9098 2.93538C39.8688 2.69237 39.7914 2.45695 39.6803 2.23703C39.4556 1.79501 39.0968 1.4357 38.6554 1.21073C38.4357 1.09993 38.2008 1.02249 37.9584 0.980935C37.7162 0.937288 37.4693 0.922896 37.2249 0.91629C37.1126 0.913433 37.0002 0.911702 36.8878 0.9111C36.7546 0.910156 36.621 0.910156 36.4879 0.910156Z" fill="white"/>
<path d="M36.344 1.91016L36.7344 1.91086C36.84 1.91156 36.9458 1.91272 37.052 1.91551C37.2372 1.92063 37.4534 1.93062 37.6551 1.96667C37.8303 1.99807 37.9774 2.04574 38.1184 2.11737C38.4007 2.26029 38.63 2.4889 38.7732 2.77015C38.8446 2.90968 38.8922 3.05526 38.9238 3.23131C38.9597 3.42991 38.9698 3.64596 38.9747 3.8313C38.9777 3.93595 38.9791 4.0406 38.9793 4.14758C38.9805 4.27711 38.9805 4.40641 38.9805 4.53618V22.2844C38.9805 22.4142 38.9805 22.5435 38.9796 22.6756C38.9791 22.7802 38.9777 22.8849 38.9749 22.9895C38.9698 23.1746 38.9597 23.3907 38.9233 23.5916C38.8968 23.7514 38.846 23.9063 38.7727 24.0509C38.6292 24.3323 38.3996 24.5609 38.117 24.7037C37.9769 24.7749 37.8303 24.8225 37.6568 24.8537C37.4511 24.8902 37.2255 24.9002 37.0557 24.9049C36.949 24.9072 36.8428 24.9088 36.7337 24.9093C36.6042 24.9102 36.4739 24.9102 36.344 24.9102H4.6118C4.48338 24.9102 4.35495 24.9102 4.22419 24.9093C4.1191 24.9088 4.01402 24.9074 3.90896 24.9051C3.73524 24.9004 3.50967 24.8902 3.30559 24.8539C3.14424 24.8271 2.98789 24.7762 2.84186 24.7028C2.70178 24.6319 2.57394 24.5393 2.46312 24.4283C2.35195 24.3178 2.25911 24.1904 2.18805 24.0509C2.11467 23.9055 2.06382 23.7499 2.03721 23.5893C2.00078 23.3886 1.99051 23.1735 1.98584 22.9898C1.9832 22.8847 1.98165 22.7797 1.98117 22.6746L1.98047 22.366V4.45479L1.98094 4.14665C1.98142 4.04144 1.98298 3.93625 1.98561 3.83107C1.99074 3.64689 2.00078 3.43177 2.03744 3.22945C2.0641 3.06919 2.11496 2.91386 2.18829 2.76876C2.25927 2.62969 2.35174 2.50271 2.46382 2.39132C2.5749 2.28051 2.70289 2.18789 2.84303 2.1169C2.9887 2.04401 3.14455 1.99337 3.30536 1.96667C3.50734 1.93062 3.72379 1.92063 3.9092 1.91551C4.01474 1.91272 4.12051 1.91156 4.22536 1.91086L4.61694 1.91016H36.344Z" fill="white"/>
<path d="M37.6551 1.96667C37.8303 1.99807 37.9774 2.04574 38.1184 2.11737C38.4007 2.26029 38.63 2.4889 38.7732 2.77015C38.8446 2.90968 38.8922 3.05526 38.9238 3.23131C38.9597 3.42991 38.9698 3.64596 38.9747 3.8313C38.9777 3.93595 38.9791 4.0406 38.9793 4.14758C38.9805 4.27711 38.9805 4.40641 38.9805 4.53618V22.2844C38.9805 22.4142 38.9805 22.5435 38.9796 22.6756C38.9791 22.7802 38.9777 22.8849 38.9749 22.9895M37.6551 1.96667C37.4534 1.93062 37.2372 1.92063 37.052 1.91551M37.6551 1.96667L37.5672 2.45888M38.9749 22.9895C38.9698 23.1746 38.9597 23.3907 38.9233 23.5916C38.8968 23.7514 38.846 23.9063 38.7727 24.0509M38.9749 22.9895L38.4751 22.9756M37.052 1.91551C36.9458 1.91272 36.84 1.91156 36.7344 1.91086M37.052 1.91551L37.0389 2.41534M37.5672 2.45888C37.5673 2.45889 37.5671 2.45886 37.5672 2.45888ZM37.5672 2.45888C37.7006 2.48281 37.8006 2.51674 37.8925 2.56344C38.0804 2.65856 38.2326 2.81053 38.3276 2.99701L38.3281 2.99804C38.3742 3.08811 38.4078 3.18658 38.4318 3.3204C38.4604 3.4788 38.47 3.66227 38.4748 3.84452L38.4749 3.84581C38.4778 3.94524 38.4791 4.04535 38.4793 4.14867L38.4794 4.15209C38.4805 4.27899 38.4805 4.40604 38.4805 4.53618V22.2844C38.4805 22.4144 38.4805 22.542 38.4796 22.672V22.6733C38.4791 22.7749 38.4778 22.8756 38.4751 22.9756M37.5672 2.45888C37.4049 2.42988 37.2211 2.42038 37.0389 2.41534M36.7344 1.91086L36.344 1.91016M36.7344 1.91086L36.7336 2.41086L36.7323 2.41085C36.8361 2.41154 36.938 2.41269 37.0389 2.41534M36.7344 1.91086L36.7311 2.41085L36.344 2.41016M37.0389 2.41534C37.0388 2.41533 37.0391 2.41534 37.0389 2.41534ZM36.344 1.91016V2.41016M36.344 1.91016H4.61694M36.344 2.41016H4.61738M4.61694 1.91016L4.61738 2.41016M4.61694 1.91016L4.22536 1.91086M4.61738 2.41016L4.22746 2.41085M4.22536 1.91086C4.12051 1.91156 4.01474 1.91272 3.9092 1.91551M4.22536 1.91086L4.22868 2.41085C4.22828 2.41085 4.22787 2.41085 4.22746 2.41085M4.22536 1.91086L4.22625 2.41086L4.22746 2.41085M4.22746 2.41085C4.12424 2.41155 4.02268 2.41268 3.92241 2.41533M3.9092 1.91551C3.72379 1.92063 3.50734 1.93062 3.30536 1.96667C3.14455 1.99337 2.9887 2.04401 2.84303 2.1169C2.70289 2.18789 2.5749 2.28051 2.46382 2.39132C2.35174 2.50271 2.25927 2.62969 2.18829 2.76876M3.9092 1.91551L3.92241 2.41533M2.18829 2.76876C2.11496 2.91386 2.0641 3.06919 2.03744 3.22945C2.00078 3.43177 1.99074 3.64689 1.98561 3.83107M2.18829 2.76876L2.63455 2.99426C2.63439 2.99457 2.63424 2.99487 2.63408 2.99518M2.18829 2.76876L2.63408 2.99518M3.92241 2.41533C3.73993 2.42036 3.55589 2.42986 3.3932 2.45889L3.38726 2.45995C3.27616 2.4784 3.16849 2.51329 3.06788 2.56349C2.97509 2.61064 2.89041 2.67202 2.81693 2.74531C2.74255 2.81923 2.68095 2.90359 2.63408 2.99518M2.63408 2.99518C2.63423 2.99488 2.63393 2.99547 2.63408 2.99518ZM2.63408 2.99518C2.58381 3.09489 2.54896 3.20153 2.53067 3.3115L2.52948 3.3186C2.50008 3.48088 2.49051 3.66275 2.48545 3.84358M1.98561 3.83107C1.98298 3.93625 1.98142 4.04144 1.98094 4.14665M1.98561 3.83107L2.48545 3.84358M1.98561 3.83107L2.48541 3.84501C2.48542 3.84477 2.48545 3.84382 2.48545 3.84358M1.98094 4.14665L1.98047 4.45479M1.98094 4.14665L2.48094 4.14741C2.4814 4.0461 2.48292 3.94486 2.48545 3.84358M1.98094 4.14665L2.48093 4.14894L2.48047 4.45479M2.48545 3.84358C2.48544 3.84382 2.48546 3.84334 2.48545 3.84358ZM1.98047 4.45479H2.48047M1.98047 4.45479V22.366M2.48047 4.45479V22.3655M1.98047 22.366L2.48047 22.3655M1.98047 22.366L1.98117 22.6746M2.48047 22.3655L2.48117 22.6724L1.98117 22.6746M1.98117 22.6746C1.98165 22.7797 1.9832 22.8847 1.98584 22.9898M1.98117 22.6746L2.48117 22.6735C2.48163 22.7749 2.48313 22.8757 2.48568 22.9771M1.98584 22.9898L2.48568 22.9771M1.98584 22.9898C1.99051 23.1735 2.00078 23.3886 2.03721 23.5893C2.06382 23.7499 2.11467 23.9055 2.18805 24.0509M2.48568 22.9771C2.49024 23.1562 2.5 23.3393 2.52917 23.5L2.53054 23.5075C2.5488 23.6178 2.58363 23.7247 2.63396 23.8247M2.18805 24.0509C2.25911 24.1904 2.35195 24.3178 2.46312 24.4283C2.57394 24.5393 2.70178 24.6319 2.84186 24.7028M2.18805 24.0509L2.63396 23.8247M2.18805 24.0509L2.63444 23.8257C2.63428 23.8253 2.63412 23.825 2.63396 23.8247M2.63396 23.8247C2.63408 23.8249 2.63384 23.8245 2.63396 23.8247ZM2.63396 23.8247C2.68089 23.9167 2.74219 24.0007 2.81564 24.0738L2.81683 24.0749C2.89 24.1482 2.97493 24.2096 3.06757 24.2566M2.84186 24.7028C2.98789 24.7762 3.14424 24.8271 3.30559 24.8539C3.50967 24.8902 3.73524 24.9004 3.90896 24.9051M2.84186 24.7028L3.06645 24.256M2.84186 24.7028L3.06757 24.2566M3.90896 24.9051C4.01402 24.9074 4.1191 24.9088 4.22419 24.9093C4.35468 24.9102 4.48285 24.9102 4.61102 24.9102H36.344C36.4736 24.9102 36.6044 24.9102 36.7337 24.9093C36.8428 24.9088 36.949 24.9072 37.0557 24.9049M3.90896 24.9051L3.92009 24.4052C3.92046 24.4052 3.92083 24.4052 3.9212 24.4052M3.90896 24.9051L3.92234 24.4053C3.92196 24.4053 3.92158 24.4052 3.9212 24.4052M3.06645 24.256C3.06666 24.2561 3.06623 24.2559 3.06645 24.256ZM3.06757 24.2566C3.06742 24.2565 3.06772 24.2566 3.06757 24.2566ZM3.06757 24.2566C3.16842 24.3072 3.27596 24.3422 3.38746 24.3607L3.39311 24.3616C3.5576 24.3909 3.75094 24.4007 3.9212 24.4052M37.0557 24.9049C37.2255 24.9002 37.4511 24.8902 37.6568 24.8537M37.0557 24.9049L37.042 24.405C37.0425 24.405 37.0429 24.405 37.0434 24.405M37.0557 24.9049L37.0449 24.405C37.0444 24.405 37.0439 24.405 37.0434 24.405M3.9212 24.4052C4.0229 24.4075 4.12462 24.4088 4.22635 24.4093H4.22775C4.35644 24.4102 4.4831 24.4102 4.6118 24.4102H36.344C36.4742 24.4102 36.6027 24.4102 36.7302 24.4093H36.7316C36.8366 24.4088 36.9393 24.4073 37.0434 24.405M37.6568 24.8537C37.8303 24.8225 37.9769 24.7749 38.117 24.7037C38.3996 24.5609 38.6292 24.3323 38.7727 24.0509M37.6568 24.8537L37.5684 24.3616M37.6568 24.8537L37.5694 24.3614M37.0434 24.405C37.2098 24.4004 37.4034 24.3908 37.5694 24.3614M38.7727 24.0509L38.3268 23.8247M38.7727 24.0509L38.3273 23.8237M37.5684 24.3616C37.5685 24.3615 37.5683 24.3616 37.5684 24.3616ZM37.5694 24.3614C37.5692 24.3614 37.5696 24.3614 37.5694 24.3614ZM37.5694 24.3614C37.7008 24.3378 37.7993 24.3043 37.8906 24.2579C38.0786 24.1628 38.2321 24.0101 38.3273 23.8237M38.3268 23.8247C38.3269 23.8245 38.3267 23.8249 38.3268 23.8247ZM38.3273 23.8237C38.3272 23.8239 38.3274 23.8236 38.3273 23.8237ZM38.3273 23.8237C38.3775 23.7247 38.4119 23.6192 38.43 23.5099L38.4313 23.5024C38.4605 23.3415 38.47 23.158 38.4751 22.9756M38.4751 22.9756C38.4751 22.9755 38.4751 22.9758 38.4751 22.9756Z" stroke="#111111" stroke-opacity="0.15"/>
<path d="M11.4608 8.29774C11.801 7.92424 12.0316 7.42263 11.9708 6.91016C11.4732 6.93187 10.8661 7.19853 10.5144 7.57245C10.1987 7.89253 9.91942 8.415 9.9921 8.90598C10.5507 8.94854 11.1089 8.66081 11.4608 8.29774Z" fill="#1F1F1F"/>
<path d="M11.9274 9.91364C11.1177 9.8618 10.4298 10.4061 10.0433 10.4061C9.65658 10.4061 9.06464 9.93956 8.42436 9.95226C7.5912 9.96522 6.81822 10.4706 6.39523 11.2741C5.52557 12.8811 6.16561 15.2656 7.01158 16.5745C7.42224 17.2224 7.91726 17.9352 8.56938 17.9095C9.18573 17.8836 9.4272 17.4819 10.176 17.4819C10.9246 17.4819 11.1421 17.9095 11.7945 17.8966C12.4708 17.8836 12.8938 17.2486 13.3044 16.6006C13.7758 15.862 13.9684 15.1492 13.9805 15.1103C13.9684 15.0974 12.6763 14.5658 12.6642 12.9718C12.6521 11.637 13.6788 11.002 13.7272 10.9629C13.1473 10.0432 12.2416 9.93956 11.9274 9.91364Z" fill="#1F1F1F"/>
<path d="M19.1753 8.91016C20.8288 8.91016 21.9805 10.1139 21.9805 11.8665C21.9805 13.6252 20.8052 14.8352 19.134 14.8352H17.3032V17.9102H15.9805V8.91016H19.1753ZM17.3032 13.6626H18.8209C19.9728 13.6626 20.628 13.0078 20.628 11.8727C20.628 10.7377 19.9725 10.089 18.8268 10.089H17.3032V13.6626Z" fill="#1F1F1F"/>
<path d="M22.9805 15.1737C22.9805 14.1372 23.9257 13.5434 25.6687 13.4537L27.539 13.3584V12.9101C27.539 12.2549 27.023 11.8963 26.1046 11.8963C25.3468 11.8963 24.797 12.2211 24.6835 12.7196H23.3289C23.3694 11.6721 24.5491 10.9102 26.1448 10.9102C27.8609 10.9102 28.9805 11.6609 28.9805 12.8263V16.8488H27.5929V15.8795H27.5594C27.1638 16.5125 26.2921 16.9102 25.3468 16.9102C23.9526 16.9102 22.9805 16.2158 22.9805 15.1737ZM27.539 14.6527V14.1988L25.8699 14.2885C24.9311 14.3389 24.4421 14.6301 24.4421 15.1398C24.4421 15.633 24.9514 15.9524 25.7492 15.9524C26.7679 15.9524 27.539 15.4088 27.539 14.6527Z" fill="#1F1F1F"/>
<path d="M29.6078 19.8724V18.7906C29.6922 18.8029 29.8971 18.8154 30.0056 18.8154C30.6025 18.8154 30.9403 18.5532 31.1454 17.8773L31.266 17.4772L28.9805 10.9102H30.3914L31.9835 16.2387H32.0137L33.6055 10.9102H34.9805L32.6106 17.8085C32.0677 19.391 31.4467 19.9102 30.1323 19.9102C30.0298 19.9102 29.698 19.8977 29.6078 19.8724Z" fill="#1F1F1F"/>
</g>
</g>
</g>
<defs>
<clipPath id="clip0_134_596">
<rect width="40" height="25" fill="white" transform="translate(0.980469 0.910156)"/>
</clipPath>
<clipPath id="clip1_134_596">
<rect width="40" height="25" fill="white" transform="translate(0.980469 0.910156)"/>
</clipPath>
<clipPath id="clip2_134_596">
<rect width="40" height="25" fill="white" transform="translate(0.980469 0.910156)"/>
</clipPath>
</defs>
</svg>
