<svg width="41" height="26" viewBox="0 0 41 26" fill="none" xmlns="http://www.w3.org/2000/svg">
<g clip-path="url(#clip0_134_616)">
<g clip-path="url(#clip1_134_616)">
<g clip-path="url(#clip2_134_616)">
<path opacity="0.07" d="M37.8226 0.910156H4.13836C2.34889 0.910156 0.980469 2.26433 0.980469 4.03516V22.7852C0.980469 24.556 2.45415 25.9102 4.13836 25.9102H37.8226C39.6121 25.9102 40.9805 24.556 40.9805 22.7852V4.03516C40.9805 2.26433 39.5068 0.910156 37.8226 0.910156Z" fill="white"/>
<path d="M37.8694 1.91016C39.0305 1.91016 39.9805 2.85107 39.9805 4.00107V22.8193C39.9805 23.9693 39.0305 24.9102 37.8694 24.9102H4.09158C2.93047 24.9102 1.98047 23.9693 1.98047 22.8193V4.00107C1.98047 2.85107 2.93047 1.91016 4.09158 1.91016H37.8694Z" fill="white"/>
<path d="M4.62924 8.03473H2.98047V13.7441H4.62924C5.50089 13.7441 6.131 13.5365 6.68759 13.0901C7.3492 12.5503 7.73776 11.7407 7.73776 10.8998C7.72726 9.20774 6.45655 8.03473 4.62924 8.03473ZM5.95247 12.3323C5.59541 12.6438 5.14383 12.7891 4.40871 12.7891H4.10416V9.01051H4.40871C5.13333 9.01051 5.5744 9.13507 5.95247 9.46725C6.34103 9.80981 6.57207 10.3392 6.57207 10.8894C6.57207 11.4396 6.34103 11.9898 5.95247 12.3323ZM8.25235 8.03473H9.37604V13.7441H8.25235V8.03473ZM12.1275 10.225C11.4554 9.9759 11.2559 9.80981 11.2559 9.50878C11.2559 9.14545 11.6129 8.87556 12.096 8.87556C12.4321 8.87556 12.7156 9.01051 12.9992 9.34269L13.5873 8.5849C13.1042 8.16968 12.5266 7.95168 11.886 7.95168C10.8673 7.95168 10.0796 8.65756 10.0796 9.59182C10.0796 10.3807 10.4472 10.7856 11.4974 11.1593C11.9385 11.315 12.159 11.4189 12.2746 11.4811C12.4951 11.6265 12.6106 11.8341 12.6106 12.0728C12.6106 12.54 12.243 12.8825 11.739 12.8825C11.2034 12.8825 10.7728 12.6126 10.5102 12.1247L9.7856 12.8202C10.3002 13.578 10.9303 13.9102 11.781 13.9102C12.9467 13.9102 13.7763 13.142 13.7763 12.0313C13.7973 11.1074 13.4087 10.6922 12.1275 10.225ZM14.1439 10.8998C14.1439 12.5815 15.4776 13.8791 17.1894 13.8791C17.6724 13.8791 18.0925 13.7856 18.5966 13.5469V12.2389C18.145 12.6853 17.746 12.8618 17.2419 12.8618C16.1077 12.8618 15.2991 12.0521 15.2991 10.8894C15.2991 9.78905 16.1287 8.92746 17.1894 8.92746C17.725 8.92746 18.1345 9.11431 18.5966 9.57106V8.2631C18.103 8.01397 17.6935 7.91016 17.2104 7.91016C15.5196 7.91016 14.1439 9.23888 14.1439 10.8998ZM27.5441 11.8756L26.0003 8.03473H24.7716L27.2185 13.8894H27.8276L30.3166 8.03473H29.0984L27.5441 11.8756ZM30.8311 13.7441H34.0237V12.7787H31.9548V11.2424H33.9502V10.2769H31.9548V9.01051H34.0237V8.03473H30.8311V13.7441ZM38.4869 9.72677C38.4869 8.65756 37.7413 8.04511 36.4391 8.04511H34.7693V13.7545H35.893V11.4604H36.04L37.5943 13.7545H38.9805L37.1637 11.3462C38.0143 11.1697 38.4869 10.5987 38.4869 9.72677ZM36.2185 10.6714H35.893V8.93784H36.2395C36.9432 8.93784 37.3212 9.2285 37.3212 9.78905C37.3212 10.36 36.9432 10.6714 36.2185 10.6714Z" fill="#1F1F1F"/>
<path d="M21.9805 13.9102C22.7761 13.9102 23.5392 13.5941 24.1018 13.0315C24.6644 12.4689 24.9805 11.7058 24.9805 10.9102C24.9805 10.1145 24.6644 9.35145 24.1018 8.78884C23.5392 8.22623 22.7761 7.91016 21.9805 7.91016C21.1849 7.91016 20.4218 8.22623 19.8592 8.78884C19.2966 9.35145 18.9805 10.1145 18.9805 10.9102C18.9805 11.7058 19.2966 12.4689 19.8592 13.0315C20.4218 13.5941 21.1849 13.9102 21.9805 13.9102Z" fill="url(#paint0_linear_134_616)"/>
<path opacity="0.65" d="M21.9805 13.9102C22.7761 13.9102 23.5392 13.5941 24.1018 13.0315C24.6644 12.4689 24.9805 11.7058 24.9805 10.9102C24.9805 10.1145 24.6644 9.35145 24.1018 8.78884C23.5392 8.22623 22.7761 7.91016 21.9805 7.91016C21.1849 7.91016 20.4218 8.22623 19.8592 8.78884C19.2966 9.35145 18.9805 10.1145 18.9805 10.9102C18.9805 11.7058 19.2966 12.4689 19.8592 13.0315C20.4218 13.5941 21.1849 13.9102 21.9805 13.9102Z" fill="url(#paint1_linear_134_616)"/>
<path d="M39.3347 9.22266C39.3347 9.01433 39.2617 8.91016 39.1472 8.91016H38.9805V9.91016H39.1055V9.51433L39.2513 9.91016H39.3972L39.2305 9.49349C39.293 9.47266 39.3347 9.36849 39.3347 9.22266ZM39.1263 9.36849H39.1055V9.09766H39.1263C39.1888 9.09766 39.2201 9.13933 39.2201 9.22266C39.2201 9.32683 39.1888 9.36849 39.1263 9.36849Z" fill="#1F1F1F"/>
<path d="M39.4805 7.91016C39.2067 7.91016 38.9805 8.13635 38.9805 8.41016C38.9805 8.68397 39.2067 8.91016 39.4805 8.91016C39.7543 8.91016 39.9805 8.68397 39.9805 8.41016C39.9805 8.13635 39.7543 7.91016 39.4805 7.91016ZM39.4805 8.82683C39.2662 8.82683 39.0757 8.64826 39.0757 8.41016C39.0757 8.18397 39.2543 7.99349 39.4805 7.99349C39.6948 7.99349 39.8734 8.18397 39.8734 8.41016C39.8734 8.63635 39.6948 8.82683 39.4805 8.82683Z" fill="#1F1F1F"/>
<path d="M39.9567 14.9102C39.9567 14.9102 29.71 21.7882 10.9805 24.9102H37.8877C38.4333 24.9102 38.9568 24.702 39.3442 24.331C39.7315 23.96 39.9513 23.4562 39.9557 22.9294L39.9805 19.9142L39.9567 14.9102Z" fill="#F48120"/>
</g>
</g>
</g>
<defs>
<linearGradient id="paint0_linear_134_616" x1="23.5127" y1="13.3114" x2="21.4401" y2="10.0657" gradientUnits="userSpaceOnUse">
<stop stop-color="#F89F20"/>
<stop offset="0.25" stop-color="#F79A20"/>
<stop offset="0.533" stop-color="#F68D20"/>
<stop offset="0.62" stop-color="#F58720"/>
<stop offset="0.723" stop-color="#F48120"/>
<stop offset="1" stop-color="#F37521"/>
</linearGradient>
<linearGradient id="paint1_linear_134_616" x1="23.1862" y1="13.2674" x2="20.1565" y2="7.34517" gradientUnits="userSpaceOnUse">
<stop stop-color="#F58720"/>
<stop offset="0.359" stop-color="#E16F27"/>
<stop offset="0.703" stop-color="#D4602C"/>
<stop offset="0.982" stop-color="#D05B2E"/>
</linearGradient>
<clipPath id="clip0_134_616">
<rect width="40" height="25" fill="white" transform="translate(0.980469 0.910156)"/>
</clipPath>
<clipPath id="clip1_134_616">
<rect width="40" height="25" fill="white" transform="translate(0.980469 0.910156)"/>
</clipPath>
<clipPath id="clip2_134_616">
<rect width="40" height="25" fill="white" transform="translate(0.980469 0.910156)"/>
</clipPath>
</defs>
</svg>
