<svg width="39" height="26" viewBox="0 0 39 26" fill="none" xmlns="http://www.w3.org/2000/svg">
<g clip-path="url(#clip0_134_628)">
<g clip-path="url(#clip1_134_628)">
<g clip-path="url(#clip2_134_628)">
<path d="M36.9805 2.41016H2.98047C2.15204 2.41016 1.48047 3.08173 1.48047 3.91016V22.9102C1.48047 23.7386 2.15204 24.4102 2.98047 24.4102H36.9805C37.8089 24.4102 38.4805 23.7386 38.4805 22.9102V3.91016C38.4805 3.08173 37.8089 2.41016 36.9805 2.41016Z" fill="white"/>
<path d="M36.9805 2.41016H2.98047C2.15204 2.41016 1.48047 3.08173 1.48047 3.91016V22.9102C1.48047 23.7386 2.15204 24.4102 2.98047 24.4102H36.9805C37.8089 24.4102 38.4805 23.7386 38.4805 22.9102V3.91016C38.4805 3.08173 37.8089 2.41016 36.9805 2.41016Z" stroke="#DBDBDB"/>
<path d="M19.1165 13.2711V16.2788H18.1621V8.85156H20.6924C21.3338 8.85156 21.8806 9.06535 22.328 9.49287C22.7854 9.9204 23.0141 10.4424 23.0141 11.0588C23.0141 11.6902 22.7854 12.2122 22.328 12.6348C21.8855 13.0573 21.3387 13.2661 20.6924 13.2661H19.1165V13.2711ZM19.1165 9.76628V12.3564H20.7123C21.0902 12.3564 21.4084 12.2271 21.6569 11.9736C21.9104 11.72 22.0397 11.4118 22.0397 11.0638C22.0397 10.7208 21.9104 10.4175 21.6569 10.164C21.4083 9.90049 21.0951 9.77126 20.7123 9.77126H19.1165V9.76628Z" fill="#383E41"/>
<path d="M25.5082 11.0273C26.2142 11.0273 26.771 11.2163 27.1786 11.5941C27.5863 11.9719 27.7901 12.4889 27.7901 13.1451V16.2771H26.8803V15.5711H26.8405C26.4478 16.1528 25.9208 16.4411 25.2646 16.4411C24.7029 16.4411 24.2356 16.2771 23.8578 15.944C23.4799 15.6109 23.291 15.1983 23.291 14.7012C23.291 14.1742 23.4899 13.7566 23.8876 13.4484C24.2853 13.1352 24.8173 12.9811 25.4784 12.9811C26.0452 12.9811 26.5125 13.0855 26.8754 13.2943V13.0756C26.8754 12.7425 26.7461 12.4641 26.4826 12.2304C26.2191 11.9968 25.9109 11.8824 25.558 11.8824C25.026 11.8824 24.6035 12.1061 24.2952 12.5585L23.4551 12.0316C23.9174 11.3604 24.6035 11.0273 25.5082 11.0273ZM24.2754 14.716C24.2754 14.9646 24.3798 15.1734 24.5935 15.3374C24.8023 15.5015 25.0509 15.586 25.3343 15.586C25.737 15.586 26.0949 15.4369 26.4081 15.1386C26.7213 14.8403 26.8804 14.4923 26.8804 14.0897C26.5821 13.856 26.1695 13.7367 25.6375 13.7367C25.2498 13.7367 24.9266 13.8311 24.6681 14.0151C24.4046 14.2089 24.2754 14.4426 24.2754 14.716Z" fill="#383E41"/>
<path d="M32.9811 11.1914L29.7995 18.5092H28.8152L29.9983 15.9489L27.9004 11.1914H28.9394L30.4507 14.8403H30.4706L31.9421 11.1914H32.9811Z" fill="#383E41"/>
<path d="M15.2392 11.7695H11.2383V13.41L13.5425 13.4105C13.4491 13.9564 13.1483 14.4217 12.6875 14.7319C12.6873 14.732 12.6876 14.7318 12.6875 14.7319L12.6465 15.7124L14.0596 15.7958C14.0594 15.7959 14.0598 15.7956 14.0596 15.7958C14.8605 15.0546 15.3188 13.9594 15.3188 12.6648C15.3187 12.3536 15.2909 12.0558 15.2392 11.7695Z" fill="#0085F7"/>
<path d="M12.6881 14.7313C12.6879 14.7314 12.6882 14.7312 12.6881 14.7313C12.3063 14.9886 11.8143 15.1394 11.2394 15.1394C10.1283 15.1394 9.18575 14.3907 8.84821 13.3816C8.84816 13.3814 8.84826 13.3817 8.84821 13.3816L7.66851 13.1953L7.43359 14.4796C8.13463 15.8704 9.57519 16.8247 11.2395 16.8247C12.3895 16.8247 13.3557 16.4466 14.0592 15.7956C14.0591 15.7958 14.0594 15.7955 14.0592 15.7956L12.6881 14.7313Z" fill="#00A94B"/>
<path d="M8.71495 12.5687C8.71495 12.2853 8.76218 12.0114 8.8482 11.7539L8.47984 10.6562H7.43334C7.14353 11.2315 6.98047 11.8807 6.98047 12.5687C6.98047 13.2567 7.14404 13.906 7.43334 14.4812L8.8482 13.3835C8.84815 13.3833 8.84825 13.3837 8.8482 13.3835C8.76228 13.1262 8.71495 12.8519 8.71495 12.5687Z" fill="#FFBB00"/>
<path d="M11.2397 8.30859C9.57574 8.30859 8.13457 9.26308 7.43359 10.6541L8.8484 11.7518C9.18595 10.7426 10.1285 9.99392 11.2396 9.99392C11.8675 9.99392 12.4298 10.2102 12.8737 10.6328L14.0892 9.41827C13.351 8.73064 12.3886 8.30859 11.2397 8.30859Z" fill="#FF4031"/>
</g>
</g>
</g>
<defs>
<clipPath id="clip0_134_628">
<rect width="38" height="24" fill="white" transform="translate(0.980469 1.41016)"/>
</clipPath>
<clipPath id="clip1_134_628">
<rect width="38" height="24" fill="white" transform="translate(0.980469 1.41016)"/>
</clipPath>
<clipPath id="clip2_134_628">
<rect width="38" height="24" fill="white" transform="translate(0.980469 1.41016)"/>
</clipPath>
</defs>
</svg>
