<svg width="41" height="26" viewBox="0 0 41 26" fill="none" xmlns="http://www.w3.org/2000/svg">
<g clip-path="url(#clip0_134_651)">
<g clip-path="url(#clip1_134_651)">
<g clip-path="url(#clip2_134_651)">
<path opacity="0.07" d="M37.8226 0.910156H4.13836C2.34889 0.910156 0.980469 2.26433 0.980469 4.03516V22.7852C0.980469 24.556 2.45415 25.9102 4.13836 25.9102H37.8226C39.6121 25.9102 40.9805 24.556 40.9805 22.7852V4.03516C40.9805 2.26433 39.5068 0.910156 37.8226 0.910156Z" fill="white"/>
<path d="M37.8694 1.91016C39.0305 1.91016 39.9805 2.85107 39.9805 4.00107V22.8193C39.9805 23.9693 39.0305 24.9102 37.8694 24.9102H4.09158C2.93047 24.9102 1.98047 23.9693 1.98047 22.8193V4.00107C1.98047 2.85107 2.93047 1.91016 4.09158 1.91016H37.8694Z" fill="white"/>
<path d="M37.8694 2.41016C38.7589 2.41016 39.4805 3.13173 39.4805 4.00107V22.8193C39.4805 23.6886 38.7589 24.4102 37.8694 24.4102H4.09158C3.20207 24.4102 2.48047 23.6886 2.48047 22.8193V4.00107C2.48047 3.13173 3.20207 2.41016 4.09158 2.41016H37.8694Z" stroke="#111111" stroke-opacity="0.15"/>
<path d="M17.4805 20.9102C21.6226 20.9102 24.9805 17.5523 24.9805 13.4102C24.9805 9.26802 21.6226 5.91016 17.4805 5.91016C13.3384 5.91016 9.98047 9.26802 9.98047 13.4102C9.98047 17.5523 13.3384 20.9102 17.4805 20.9102Z" fill="#EB001B"/>
<path d="M25.4805 20.9102C29.6226 20.9102 32.9805 17.5523 32.9805 13.4102C32.9805 9.26802 29.6226 5.91016 25.4805 5.91016C21.3384 5.91016 17.9805 9.26802 17.9805 13.4102C17.9805 17.5523 21.3384 20.9102 25.4805 20.9102Z" fill="#F79E1B"/>
<path d="M23.9805 13.9102C23.9805 11.3839 22.7805 9.17332 20.9805 7.91016C19.1805 9.27858 17.9805 11.4891 17.9805 13.9102C17.9805 16.3313 19.1805 18.647 20.9805 19.9102C22.7805 18.647 23.9805 16.4365 23.9805 13.9102Z" fill="#FF5F00"/>
</g>
</g>
</g>
<defs>
<clipPath id="clip0_134_651">
<rect width="40" height="25" fill="white" transform="translate(0.980469 0.910156)"/>
</clipPath>
<clipPath id="clip1_134_651">
<rect width="40" height="25" fill="white" transform="translate(0.980469 0.910156)"/>
</clipPath>
<clipPath id="clip2_134_651">
<rect width="40" height="25" fill="white" transform="translate(0.980469 0.910156)"/>
</clipPath>
</defs>
</svg>
