<svg width="41" height="26" viewBox="0 0 41 26" fill="none" xmlns="http://www.w3.org/2000/svg">
<g clip-path="url(#clip0_134_661)">
<g clip-path="url(#clip1_134_661)">
<g clip-path="url(#clip2_134_661)">
<path opacity="0.07" d="M37.8226 0.910156H4.13836C2.34889 0.910156 0.980469 2.26433 0.980469 4.03516V22.7852C0.980469 24.556 2.45415 25.9102 4.13836 25.9102H37.8226C39.6121 25.9102 40.9805 24.556 40.9805 22.7852V4.03516C40.9805 2.26433 39.5068 0.910156 37.8226 0.910156Z" fill="white"/>
<path d="M38.7584 0.910156C39.9805 0.910156 40.9805 1.93308 40.9805 3.18308V23.6373C40.9805 24.8873 39.9805 25.9102 38.7584 25.9102H3.20152C1.98047 25.9102 0.980469 24.8873 0.980469 23.6373V3.18308C0.980469 1.93308 1.98047 0.910156 3.20258 0.910156H38.7584Z" fill="#5A31F4"/>
<path d="M11.0767 12.7476C10.033 12.514 9.56808 12.4229 9.56808 12.0091C9.56808 11.6195 9.88211 11.4246 10.5122 11.4246C11.0664 11.4246 11.4708 11.6739 11.7694 12.1621C11.7799 12.1802 11.7968 12.1935 11.8167 12.1994C11.8365 12.2052 11.8578 12.2031 11.8761 12.1935L13.0522 11.5818C13.0622 11.5763 13.0711 11.5688 13.0782 11.5598C13.0853 11.5508 13.0905 11.5404 13.0936 11.5292C13.0967 11.518 13.0975 11.5064 13.096 11.4949C13.0946 11.4834 13.0908 11.4723 13.0851 11.4623C12.5976 10.5918 11.6965 10.1152 10.5091 10.1152C8.94925 10.1152 7.98047 10.9061 7.98047 12.1642C7.98047 13.4998 9.16066 13.8371 10.2074 14.0707C11.2542 14.3032 11.7201 14.3954 11.7201 14.8092C11.7201 15.224 11.3794 15.4188 10.701 15.4188C10.073 15.4188 9.6081 15.1234 9.32588 14.5494C9.316 14.5297 9.29893 14.5149 9.27836 14.508C9.2578 14.5011 9.23542 14.5028 9.21607 14.5127L8.04307 15.1098C8.02316 15.1203 8.00812 15.1384 8.0012 15.1602C7.99428 15.182 7.99605 15.2056 8.00613 15.2261C8.47204 16.1898 9.42645 16.7314 10.7021 16.7314C12.3267 16.7314 13.3078 15.9541 13.3078 14.6573C13.3078 13.3604 12.1224 12.9833 11.0777 12.7508L11.0767 12.7476ZM17.3779 10.1152C16.7108 10.1152 16.1217 10.3582 15.6989 10.7919C15.6931 10.7981 15.6856 10.8024 15.6773 10.8042C15.669 10.8059 15.6604 10.805 15.6527 10.8015C15.645 10.7981 15.6384 10.7923 15.634 10.785C15.6296 10.7776 15.6276 10.7691 15.6281 10.7605V7.99501C15.6282 7.98392 15.6262 7.97291 15.6221 7.96262C15.6181 7.95233 15.6121 7.94297 15.6044 7.93507C15.5968 7.92718 15.5877 7.92091 15.5777 7.91664C15.5676 7.91236 15.5569 7.91016 15.546 7.91016H14.0733C14.0624 7.91016 14.0515 7.91239 14.0414 7.91673C14.0313 7.92108 14.0222 7.92744 14.0145 7.93544C14.0069 7.94345 14.0009 7.95293 13.9969 7.96334C13.9929 7.97375 13.991 7.98488 13.9912 7.99606V16.5795C13.991 16.5906 13.9929 16.6018 13.9969 16.6122C14.0009 16.6226 14.0069 16.6321 14.0145 16.6401C14.0222 16.6481 14.0313 16.6544 14.0414 16.6588C14.0515 16.6631 14.0624 16.6654 14.0733 16.6654H15.544C15.555 16.6655 15.566 16.6634 15.5762 16.6591C15.5864 16.6548 15.5956 16.6485 15.6034 16.6405C15.6112 16.6324 15.6173 16.6229 15.6213 16.6124C15.6254 16.6019 15.6274 16.5907 15.6271 16.5795V12.8147C15.6271 12.0867 16.1689 11.5294 16.8986 11.5294C17.6272 11.5294 18.1568 12.0751 18.1568 12.8147V16.5795C18.1565 16.5907 18.1585 16.6019 18.1625 16.6124C18.1666 16.6229 18.1727 16.6324 18.1804 16.6405C18.1882 16.6485 18.1975 16.6548 18.2077 16.6591C18.2179 16.6634 18.2289 16.6655 18.2399 16.6654H19.7105C19.7216 16.6655 19.7325 16.6634 19.7427 16.6591C19.753 16.6548 19.7622 16.6485 19.77 16.6405C19.7777 16.6324 19.7838 16.6229 19.7879 16.6124C19.792 16.6019 19.7939 16.5907 19.7936 16.5795V12.8147C19.7936 11.2329 18.7879 10.1152 17.3779 10.1152ZM22.779 9.86902C21.9806 9.86902 21.2324 10.1204 20.6957 10.485C20.6777 10.4968 20.6649 10.5152 20.6597 10.5364C20.6546 10.5577 20.6575 10.5801 20.668 10.5991L21.3166 11.7389C21.3219 11.7486 21.3291 11.7571 21.3377 11.7639C21.3463 11.7708 21.3561 11.7758 21.3666 11.7787C21.3771 11.7816 21.3881 11.7824 21.3989 11.781C21.4097 11.7795 21.4201 11.7759 21.4295 11.7703C21.8367 11.5166 22.3051 11.3839 22.7821 11.3869C24.0649 11.3869 25.009 12.3203 25.009 13.5532C25.009 14.6038 24.2537 15.3811 23.2962 15.3811C22.5163 15.3811 21.9744 14.9139 21.9744 14.2529C21.9744 13.8748 22.1304 13.5647 22.5368 13.3458C22.5469 13.3405 22.5558 13.3332 22.563 13.3243C22.5702 13.3154 22.5755 13.305 22.5786 13.2939C22.5817 13.2828 22.5825 13.2712 22.5809 13.2597C22.5794 13.2483 22.5755 13.2373 22.5696 13.2274L21.958 12.161C21.9483 12.1437 21.9328 12.1305 21.9144 12.1237C21.8959 12.117 21.8757 12.1172 21.8574 12.1244C21.0375 12.4376 20.4628 13.1907 20.4628 14.2026C20.4628 15.732 21.645 16.8738 23.2952 16.8738C25.2215 16.8738 26.6069 15.4984 26.6069 13.527C26.6069 11.4131 24.9957 9.86902 22.779 9.86902ZM30.9089 10.1026C30.1659 10.1026 29.4999 10.3854 29.0155 10.8841C28.9888 10.9124 28.9447 10.8914 28.9447 10.8537V10.2545C28.945 10.2433 28.9431 10.2322 28.9391 10.2218C28.935 10.2114 28.929 10.2019 28.9214 10.1939C28.9137 10.1859 28.9046 10.1795 28.8945 10.1752C28.8844 10.1708 28.8736 10.1686 28.8626 10.1686H27.4289C27.418 10.1686 27.4071 10.1708 27.397 10.1752C27.3869 10.1795 27.3778 10.1859 27.3701 10.1939C27.3625 10.2019 27.3565 10.2114 27.3525 10.2218C27.3485 10.2322 27.3466 10.2433 27.3468 10.2545V18.8253C27.3467 18.8364 27.3487 18.8474 27.3528 18.8577C27.3569 18.868 27.3629 18.8774 27.3705 18.8853C27.3781 18.8932 27.3872 18.8994 27.3973 18.9037C27.4073 18.908 27.4181 18.9102 27.4289 18.9102H28.8995C28.9105 18.9103 28.9214 18.9082 28.9315 18.904C28.9417 18.8998 28.9509 18.8936 28.9586 18.8857C28.9664 18.8777 28.9725 18.8683 28.9766 18.858C28.9808 18.8476 28.9828 18.8365 28.9827 18.8253V16.0149C28.9827 15.9771 29.0268 15.9583 29.0535 15.9834C29.5562 16.4629 30.221 16.7256 30.9089 16.7167C32.6351 16.7167 33.9805 15.2784 33.9805 13.4097C33.9805 11.5409 32.633 10.1026 30.9089 10.1026ZM30.6308 15.2659C29.6497 15.2659 28.9057 14.4614 28.9057 13.3982C28.9057 12.3349 29.6477 11.5304 30.6308 11.5304C31.614 11.5304 32.3549 12.3213 32.3549 13.3982C32.3549 14.474 31.6242 15.2659 30.6308 15.2659Z" fill="white"/>
</g>
</g>
</g>
<defs>
<clipPath id="clip0_134_661">
<rect width="40" height="25" fill="white" transform="translate(0.980469 0.910156)"/>
</clipPath>
<clipPath id="clip1_134_661">
<rect width="40" height="25" fill="white" transform="translate(0.980469 0.910156)"/>
</clipPath>
<clipPath id="clip2_134_661">
<rect width="40" height="25" fill="white" transform="translate(0.980469 0.910156)"/>
</clipPath>
</defs>
</svg>
