<svg width="41" height="26" viewBox="0 0 41 26" fill="none" xmlns="http://www.w3.org/2000/svg">
<g clip-path="url(#clip0_134_668)">
<g clip-path="url(#clip1_134_668)">
<g clip-path="url(#clip2_134_668)">
<path d="M19.6731 0.910156V25.9102H12.0691C10.6961 25.9102 9.85124 24.8685 10.1681 23.5144L14.815 3.30599C15.1318 1.95183 16.8216 0.910156 18.1945 0.910156H19.6731ZM32.98 0.910156C31.6071 0.910156 29.9173 1.95183 29.6005 3.30599L24.848 23.5144C24.5312 24.8685 25.376 25.9102 26.749 25.9102H21.5741V0.910156H32.98Z" fill="#005B9A"/>
<path d="M17.9805 0.910156C16.6163 0.910156 14.9373 2.05599 14.6225 3.30599L10.0052 23.5144C9.69035 24.8685 10.5298 25.9102 11.8941 25.9102H2.55454C1.71504 25.9102 0.980469 25.2852 0.980469 24.4519V2.57683C0.980469 1.74349 1.71504 0.910156 2.55454 0.910156H17.9805Z" fill="#E9292D"/>
<path d="M32.9805 0.910156C31.6003 0.910156 29.9015 2.05599 29.583 3.30599L24.9114 23.5144C24.5929 24.8685 25.4423 25.9102 26.8225 25.9102H11.4276H11.9585C10.5782 25.9102 9.72882 24.8685 10.0473 23.5144L14.7189 3.30599C15.0374 1.95183 16.7362 0.910156 18.1164 0.910156H32.9805Z" fill="#0E73B9"/>
<path d="M40.9805 2.57683V24.4519C40.9805 25.2852 40.3597 25.9102 39.4284 25.9102H26.9082C25.563 25.9102 24.7352 24.7644 25.0457 23.5144L29.7019 3.30599C30.0124 1.95183 31.6679 0.910156 33.0131 0.910156H39.4284C40.3597 0.910156 40.9805 1.63932 40.9805 2.57683Z" fill="#059DA4"/>
<path d="M16.9289 15.6327H17.0769C17.2249 15.6327 17.3729 15.5594 17.3729 15.4861L17.8168 14.8264H19.0747L18.8527 15.1929H20.3325L20.1105 15.8526H18.3348C18.1128 16.1458 17.8908 16.2924 17.5949 16.2924H16.707L16.9289 15.6327ZM16.707 16.5856H19.8886L19.6666 17.3186H18.4088L18.1868 18.0516H19.4446L19.2227 18.7845H17.9648L17.6688 19.884C17.5949 20.0306 17.6688 20.1772 17.9648 20.1039H19.0007L18.7787 20.8369H16.781C16.411 20.8369 16.263 20.617 16.411 20.1772L16.781 18.7845H15.967L16.189 18.0516H17.0029L17.2249 17.3186H16.485L16.707 16.5856ZM21.8123 14.7531V15.1929C21.8123 15.1929 22.4043 14.7531 22.9962 14.7531H25.0679L24.254 17.5385C24.1801 17.8317 23.8841 18.0516 23.4401 18.0516H21.0724L20.5545 20.0306C20.5545 20.1039 20.5545 20.1772 20.7025 20.1772H21.1464L20.9984 20.7636H19.8146C19.3706 20.7636 19.2227 20.617 19.2966 20.3971L20.8505 14.7531H21.8123ZM23.5881 15.5594H21.7383L21.5164 16.2924C21.5164 16.2924 21.8123 16.0725 22.3303 16.0725H23.4401L23.5881 15.5594ZM22.9222 17.3186C23.0702 17.3186 23.1442 17.3186 23.1442 17.172L23.2922 16.8055H21.4424L21.2944 17.3919L22.9222 17.3186ZM21.6644 18.1982H22.7002V18.6379H22.9962C23.1442 18.6379 23.2182 18.5646 23.2182 18.4914L23.2922 18.1982H24.1801L24.0321 18.7112C23.9581 19.0777 23.6621 19.2243 23.2182 19.2976H22.6262V20.1039C22.6262 20.2505 22.7002 20.3238 22.9962 20.3238H23.5141L23.3662 20.9102H22.1083C21.7383 20.9102 21.5904 20.7636 21.5904 20.3971L21.6644 18.1982ZM26.1038 15.6327L26.3258 14.7531H27.5836L27.5097 15.0463C27.5097 15.0463 28.1016 14.7531 28.6195 14.7531H30.1733L29.9514 15.6327H29.7294L28.5455 19.6641H28.7675L28.5455 20.4704H28.3236L28.2496 20.8369H26.9917L27.0657 20.4704H24.772L24.994 19.6641H25.2159L26.3998 15.6327H26.1038ZM27.4357 15.6327L27.1397 16.7322C27.1397 16.7322 27.6576 16.5123 28.1016 16.439C28.1756 16.0725 28.3236 15.6327 28.3236 15.6327H27.4357ZM26.9177 17.2453L26.6218 18.4181C26.6218 18.4181 27.2137 18.1249 27.6576 18.1249C27.8056 17.6851 27.8796 17.3186 27.8796 17.3186L26.9177 17.2453ZM27.1397 19.6641L27.3617 18.8578H26.4738L26.2518 19.6641H27.1397ZM30.1733 14.7531H31.3572L31.4312 15.1929C31.4312 15.2662 31.5052 15.3395 31.6531 15.3395H31.8751L31.6531 16.0725H30.8392C30.5433 16.0725 30.3213 15.9992 30.3213 15.706L30.1733 14.7531ZM29.8034 16.2924H33.5769L33.3549 17.0987H32.0971L31.8751 17.8317H33.059L32.837 18.6379H31.5052L31.2092 19.0777H31.8751L32.0231 19.9573C32.0231 20.0306 32.0971 20.1039 32.2451 20.1039H32.467L32.2451 20.8369H31.5052C31.1352 20.8369 30.9132 20.7636 30.9132 20.4704L30.7653 19.6641L30.1733 20.5437C30.0253 20.7636 29.8034 20.9102 29.5074 20.9102H28.3975L28.6195 20.1772H28.9895C29.1375 20.1772 29.2114 20.1039 29.3594 19.9573L30.2473 18.6379H29.1375L29.3594 17.8317H30.6173L30.8392 17.0987H29.5814L29.8034 16.2924ZM8.93787 11.0149C8.78989 11.7479 8.49393 12.261 7.97599 12.6275C7.45805 12.994 6.79213 13.2139 5.97823 13.2139C5.23832 13.2139 4.64639 12.994 4.35043 12.6275C4.12845 12.3343 3.98047 12.0411 3.98047 11.6013C3.98047 11.4547 3.98047 11.2348 4.05446 11.0149L4.94235 6.91016H6.2002L5.3863 11.0149V11.3081C5.3863 11.528 5.46029 11.6746 5.53428 11.8212C5.68226 12.0411 5.90424 12.1144 6.27419 12.1144C6.64415 12.1144 7.0141 12.0411 7.23608 11.8212C7.45805 11.6013 7.68002 11.3814 7.75401 11.0149L8.56792 6.91016H9.82576L8.93787 11.0149ZM10.1217 9.40231H11.0096L10.9356 9.9154L11.0836 9.7688C11.3796 9.4756 11.7496 9.32901 12.1935 9.32901C12.5635 9.32901 12.8594 9.4756 13.0074 9.6955C13.1554 9.91539 13.2294 10.2086 13.1554 10.6484L12.6375 13.1406H11.6756L12.1195 10.8683C12.1935 10.5751 12.1935 10.3552 12.1195 10.2819C12.0455 10.1353 11.8975 10.1353 11.7496 10.1353C11.5276 10.1353 11.3056 10.2086 11.1576 10.3552C11.0096 10.5018 10.8616 10.7217 10.8616 11.0149L10.4177 13.1406H9.45581L10.1217 9.40231ZM20.4805 9.40231H21.3684L21.2944 9.9154L21.4424 9.7688C21.7383 9.4756 22.1083 9.32901 22.5523 9.32901C22.9222 9.32901 23.2182 9.4756 23.3662 9.6955C23.5141 9.91539 23.5881 10.2086 23.5141 10.6484L22.9962 13.1406H22.0343L22.4783 10.795C22.5523 10.5751 22.4783 10.3552 22.4043 10.2819C22.3303 10.1353 22.1823 10.1353 22.0343 10.1353C21.8123 10.1353 21.5904 10.2086 21.4424 10.3552C21.2944 10.5018 21.1464 10.7217 21.1464 11.0149L20.7025 13.1406H19.7406L20.4805 9.40231ZM14.3392 9.40231H15.3751L14.5612 13.0673H13.5253L14.3392 9.40231ZM14.7092 8.00964H15.7451L15.5231 8.88922H14.4872L14.7092 8.00964ZM16.189 12.7741C15.967 12.5542 15.8191 12.1877 15.8191 11.7479V11.528C15.8191 11.4547 15.8191 11.3081 15.8931 11.2348C16.041 10.6484 16.263 10.1353 16.633 9.8421C17.0029 9.47561 17.5209 9.32901 18.0388 9.32901C18.4827 9.32901 18.8527 9.4756 19.1487 9.6955C19.3706 9.91539 19.5186 10.2819 19.5186 10.7217V10.9416C19.5186 11.0149 19.5186 11.1615 19.4446 11.2348C19.2966 11.8212 19.0747 12.261 18.7047 12.6275C18.3348 12.994 17.8168 13.1406 17.2989 13.1406C16.9289 13.1406 16.559 12.994 16.189 12.7741ZM18.1868 12.0411C18.3348 11.8212 18.4827 11.528 18.5567 11.1615V10.795C18.5567 10.5751 18.4827 10.4285 18.4088 10.2819C18.3437 10.2102 18.2636 10.1535 18.1742 10.1155C18.0848 10.0775 17.9881 10.0593 17.8908 10.062C17.5949 10.062 17.3729 10.1353 17.2249 10.3552C17.0769 10.5751 16.9289 10.8683 16.8549 11.2348V11.528C16.8549 11.7479 16.9289 11.8945 17.0029 12.0411C17.1509 12.1877 17.2989 12.261 17.5209 12.261C17.8168 12.3343 17.9648 12.261 18.1868 12.0411ZM25.0679 7.13005H27.7316C28.2496 7.13005 28.6195 7.27665 28.9155 7.49655C29.2114 7.71644 29.2854 8.08293 29.2854 8.44943V8.74262C29.2854 8.81592 29.2854 8.96252 29.2114 9.03581C29.1375 9.5489 28.8415 10.062 28.4715 10.3552C28.0276 10.7217 27.5836 10.8683 26.9917 10.8683H25.5119L25.0679 12.994H23.8101L25.0679 7.13005ZM25.6599 9.8421H26.8437C27.1397 9.8421 27.3617 9.7688 27.5836 9.6222C27.7316 9.4756 27.8796 9.25571 27.9536 8.96252V8.66932C27.9536 8.44943 27.8796 8.30283 27.7316 8.22953C27.5836 8.15623 27.3617 8.08293 26.9917 8.08293H26.0298L25.6599 9.8421ZM34.8348 13.727C34.4648 14.5332 34.0949 15.0463 33.8729 15.2662C33.6509 15.4861 33.207 15.9992 32.1711 15.9992L32.2451 15.3395C33.133 15.0463 33.5769 13.8735 33.8729 13.2872L33.5769 9.32901H34.8348L34.9088 11.8212L35.8706 9.40231H36.9805L34.8348 13.727ZM31.7271 9.6955L31.2832 9.98869C30.8392 9.6222 30.3953 9.4023 29.6554 9.7688C28.6195 10.2819 27.6576 14.0934 30.6173 12.8474L30.7653 13.0673H31.9491L32.689 9.6222L31.7271 9.6955ZM31.1352 11.6013C30.9132 12.1877 30.5433 12.4809 30.1733 12.4076C29.8774 12.261 29.8034 11.7479 29.9514 11.1615C30.1733 10.5751 30.5433 10.2819 30.9132 10.3552C31.2092 10.5018 31.2832 11.0149 31.1352 11.6013Z" fill="white"/>
</g>
</g>
</g>
<defs>
<clipPath id="clip0_134_668">
<rect width="40" height="25" fill="white" transform="translate(0.980469 0.910156)"/>
</clipPath>
<clipPath id="clip1_134_668">
<rect width="40" height="25" fill="white" transform="translate(0.980469 0.910156)"/>
</clipPath>
<clipPath id="clip2_134_668">
<rect width="40" height="25" fill="white" transform="translate(0.980469 0.910156)"/>
</clipPath>
</defs>
</svg>
