<svg width="41" height="26" viewBox="0 0 41 26" fill="none" xmlns="http://www.w3.org/2000/svg">
<g clip-path="url(#clip0_134_677)">
<g clip-path="url(#clip1_134_677)">
<g clip-path="url(#clip2_134_677)">
<path opacity="0.07" d="M37.8226 0.910156H4.13836C2.34889 0.910156 0.980469 2.26433 0.980469 4.03516V22.7852C0.980469 24.556 2.45415 25.9102 4.13836 25.9102H37.8226C39.6121 25.9102 40.9805 24.556 40.9805 22.7852V4.03516C40.9805 2.26433 39.5068 0.910156 37.8226 0.910156Z" fill="white"/>
<path d="M37.8694 1.91016C39.0305 1.91016 39.9805 2.85107 39.9805 4.00107V22.8193C39.9805 23.9693 39.0305 24.9102 37.8694 24.9102H4.09158C2.93047 24.9102 1.98047 23.9693 1.98047 22.8193V4.00107C1.98047 2.85107 2.93047 1.91016 4.09158 1.91016H37.8694Z" fill="white"/>
<path d="M37.8694 2.41016C38.7589 2.41016 39.4805 3.13173 39.4805 4.00107V22.8193C39.4805 23.6886 38.7589 24.4102 37.8694 24.4102H4.09158C3.20207 24.4102 2.48047 23.6886 2.48047 22.8193V4.00107C2.48047 3.13173 3.20207 2.41016 4.09158 2.41016H37.8694Z" stroke="#111111" stroke-opacity="0.15"/>
<path d="M29.9919 11.0102H29.6828C29.2706 12.0102 28.9614 12.5102 28.6523 14.0102H30.6103C30.3011 12.5102 30.3011 11.8102 29.9919 11.0102ZM32.9805 16.9102H31.2286C31.1255 16.9102 31.1255 16.9102 31.0225 16.8102L30.8164 15.9102L30.7133 15.7102H28.24C28.137 15.7102 28.0339 15.7102 28.0339 15.9102L27.7248 16.8102C27.7248 16.9102 27.6217 16.9102 27.6217 16.9102H25.4576L25.6637 16.4102L28.6523 9.61016C28.6523 9.11016 28.9614 8.91016 29.4767 8.91016H31.0225C31.1255 8.91016 31.2286 8.91016 31.2286 9.11016L32.6713 15.6102C32.7744 16.0102 32.8774 16.3102 32.8774 16.7102C32.9805 16.8102 32.9805 16.8102 32.9805 16.9102ZM19.1713 16.6102L19.5836 14.8102C19.6866 14.8102 19.7897 14.9102 19.7897 14.9102C20.511 15.2102 21.2324 15.4102 21.9538 15.3102C22.1599 15.3102 22.469 15.2102 22.6752 15.1102C23.1904 14.9102 23.1904 14.4102 22.7782 14.0102C22.5721 13.8102 22.2629 13.7102 21.9538 13.5102C21.5416 13.3102 21.1294 13.1102 20.8202 12.8102C19.5836 11.8102 19.9958 10.4102 20.7171 9.71016C21.3355 9.31016 21.6446 8.91016 22.469 8.91016C23.7057 8.91016 25.0454 8.91016 25.6637 9.11016H25.7668C25.6637 9.71016 25.5607 10.2102 25.3545 10.8102C24.8393 10.6102 24.324 10.4102 23.8087 10.4102C23.4996 10.4102 23.1904 10.4102 22.8813 10.5102C22.6752 10.5102 22.5721 10.6102 22.469 10.7102C22.2629 10.9102 22.2629 11.2102 22.469 11.4102L22.9843 11.8102C23.3965 12.0102 23.8087 12.2102 24.1179 12.4102C24.6332 12.7102 25.1484 13.2102 25.2515 13.8102C25.4576 14.7102 25.1484 15.5102 24.324 16.1102C23.8087 16.5102 23.6026 16.7102 22.8813 16.7102C21.4385 16.7102 20.3049 16.8102 19.3774 16.5102C19.2744 16.7102 19.2744 16.7102 19.1713 16.6102ZM15.5645 16.9102C15.6675 16.2102 15.6675 16.2102 15.7706 15.9102C16.2858 13.7102 16.8011 11.4102 17.2133 9.21016C17.3164 9.01016 17.3164 8.91016 17.5225 8.91016H19.3774C19.1713 10.1102 18.9652 11.0102 18.6561 12.1102C18.3469 13.6102 18.0378 15.1102 17.6255 16.6102C17.6255 16.8102 17.5225 16.8102 17.3164 16.8102M5.98047 9.11016C5.98047 9.01016 6.18658 8.91016 6.28963 8.91016H9.79345C10.3087 8.91016 10.7209 9.21016 10.824 9.71016L11.7515 14.1102C11.7515 14.2102 11.7515 14.2102 11.8545 14.3102C11.8545 14.2102 11.9576 14.2102 11.9576 14.2102L14.1217 9.11016C14.0187 9.01016 14.1217 8.91016 14.2248 8.91016H16.3889C16.3889 9.01016 16.3889 9.01016 16.2858 9.11016L13.0912 16.4102C12.9881 16.6102 12.9881 16.7102 12.8851 16.8102C12.782 16.9102 12.5759 16.8102 12.3698 16.8102H10.824C10.7209 16.8102 10.6179 16.8102 10.6179 16.6102L8.96902 10.4102C8.76291 10.2102 8.45375 9.91016 8.04154 9.81016C7.42322 9.51016 6.28963 9.31016 6.08352 9.31016L5.98047 9.11016Z" fill="#142688"/>
</g>
</g>
</g>
<defs>
<clipPath id="clip0_134_677">
<rect width="40" height="25" fill="white" transform="translate(0.980469 0.910156)"/>
</clipPath>
<clipPath id="clip1_134_677">
<rect width="40" height="25" fill="white" transform="translate(0.980469 0.910156)"/>
</clipPath>
<clipPath id="clip2_134_677">
<rect width="40" height="25" fill="white" transform="translate(0.980469 0.910156)"/>
</clipPath>
</defs>
</svg>
