<svg width="261" height="66" viewBox="0 0 261 66" fill="none" xmlns="http://www.w3.org/2000/svg">
<path d="M49.4108 65.995H42.6122C42.6122 65.995 32.2425 41.7322 0.03125 39.6081V38.4475C0.03125 38.4475 38.7119 37.0898 50.928 65.995H49.4108Z" fill="white"/>
<path d="M26.7105 45.592C37.5526 49.9351 44.6518 59.4168 48.4733 66.0008H50.928C47.6503 56.1395 43.5425 47.957 30.2315 41.1906C18.2516 35.0957 6.55078 36.2344 0.03125 37.6285V39.8913C5.94249 40.0592 15.4391 41.0884 26.7034 45.592H26.7105Z" fill="#FFF3E4"/>
<path d="M51.8557 0.046875C29.6134 30.9739 0.329197 25.3169 0.329197 25.3169L0 31.9885C28.2179 35.5724 49.5871 5.31695 52.7646 0.550525L51.8485 0.0541743L51.8557 0.046875Z" fill="#EFECE8"/>
<path d="M51.7269 0C48.1558 5.35766 40.1048 15.3212 31.6602 21.8832C21.0686 30.1095 7.18509 30.5401 0 30.0803V31.9343C10.613 34.4672 19.8735 35.6642 33.1058 27.1606C43.5685 20.438 51.0756 8.08029 53.9168 1.18248L51.7269 0Z" fill="#FFC877"/>
<path d="M62.8294 6.01078L57.5909 3.16406C38.798 34.4049 57.4549 65.9889 57.4549 65.9889L59.4874 65.9305C42.8629 43.675 61.0045 9.33195 62.8223 6.01808L62.8294 6.01078Z" fill="#EFECE8"/>
<path d="M49.9662 32.4326C51.7482 18.3669 56.3211 8.74646 58.9834 3.91435L57.5664 3.14062C53.5444 7.45449 45.0139 18.1625 44.3985 33.7611C43.7616 50.0822 49.6871 57.6516 57.3875 65.9873H59.4843C55.856 60.6151 48.0841 47.1187 49.9591 32.4253L49.9662 32.4326Z" fill="#ED930E"/>
<path d="M72 49.988V20.588H76.536V45.872H90.69V49.988H72Z" fill="#FFF3E4"/>
<path d="M104.669 50.576C101.057 50.576 98.1874 49.568 96.0594 47.552C93.9314 45.508 92.8674 42.568 92.8674 38.732V31.844C92.8674 28.008 93.9314 25.082 96.0594 23.066C98.1874 21.022 101.057 20 104.669 20C108.281 20 111.151 21.022 113.279 23.066C115.435 25.082 116.513 28.008 116.513 31.844V38.732C116.513 42.568 115.435 45.508 113.279 47.552C111.151 49.568 108.281 50.576 104.669 50.576ZM104.669 46.502C106.993 46.502 108.785 45.83 110.045 44.486C111.305 43.114 111.935 41.252 111.935 38.9V31.676C111.935 29.324 111.305 27.476 110.045 26.132C108.785 24.76 106.993 24.074 104.669 24.074C102.401 24.074 100.623 24.76 99.3354 26.132C98.0474 27.476 97.4034 29.324 97.4034 31.676V38.9C97.4034 41.252 98.0474 43.114 99.3354 44.486C100.623 45.83 102.401 46.502 104.669 46.502Z" fill="#FFF3E4"/>
<path d="M126.954 49.988L118.764 20.588H123.468L130.608 47.132H131.154L138.252 20.588H142.956L134.808 49.988H126.954Z" fill="#FFF3E4"/>
<path d="M155.392 49.988V45.956H159.34V24.62H155.392V20.588H170.302C172.066 20.588 173.606 20.896 174.922 21.512C176.238 22.1 177.26 22.954 177.988 24.074C178.744 25.166 179.122 26.468 179.122 27.98V28.4C179.122 29.744 178.87 30.85 178.366 31.718C177.862 32.586 177.246 33.258 176.518 33.734C175.818 34.21 175.146 34.546 174.502 34.742V35.414C175.146 35.582 175.832 35.918 176.56 36.422C177.316 36.898 177.946 37.57 178.45 38.438C178.982 39.306 179.248 40.44 179.248 41.84V42.26C179.248 43.884 178.87 45.27 178.114 46.418C177.358 47.566 176.308 48.448 174.964 49.064C173.648 49.68 172.122 49.988 170.386 49.988H155.392ZM163.918 45.872H169.84C171.352 45.872 172.542 45.508 173.41 44.78C174.278 44.052 174.712 43.044 174.712 41.756V41.378C174.712 40.09 174.278 39.082 173.41 38.354C172.57 37.626 171.38 37.262 169.84 37.262H163.918V45.872ZM163.918 33.104H169.84C171.268 33.104 172.416 32.754 173.284 32.054C174.152 31.326 174.586 30.346 174.586 29.114V28.694C174.586 27.462 174.152 26.496 173.284 25.796C172.444 25.068 171.296 24.704 169.84 24.704H163.918V33.104Z" fill="#FFF3E4"/>
<path d="M195.059 50.576C191.447 50.576 188.577 49.568 186.449 47.552C184.321 45.508 183.257 42.568 183.257 38.732V31.844C183.257 28.008 184.321 25.082 186.449 23.066C188.577 21.022 191.447 20 195.059 20C198.671 20 201.541 21.022 203.669 23.066C205.825 25.082 206.903 28.008 206.903 31.844V38.732C206.903 42.568 205.825 45.508 203.669 47.552C201.541 49.568 198.671 50.576 195.059 50.576ZM195.059 46.502C197.383 46.502 199.175 45.83 200.435 44.486C201.695 43.114 202.325 41.252 202.325 38.9V31.676C202.325 29.324 201.695 27.476 200.435 26.132C199.175 24.76 197.383 24.074 195.059 24.074C192.791 24.074 191.013 24.76 189.725 26.132C188.437 27.476 187.793 29.324 187.793 31.676V38.9C187.793 41.252 188.437 43.114 189.725 44.486C191.013 45.83 192.791 46.502 195.059 46.502Z" fill="#FFF3E4"/>
<path d="M211.953 49.988V20.588H224.301C226.121 20.588 227.717 20.91 229.089 21.554C230.489 22.17 231.567 23.066 232.323 24.242C233.107 25.418 233.499 26.818 233.499 28.442V28.904C233.499 30.752 233.051 32.236 232.155 33.356C231.287 34.448 230.223 35.218 228.963 35.666V36.338C230.027 36.394 230.881 36.758 231.525 37.43C232.169 38.074 232.491 39.012 232.491 40.244V49.988H227.913V40.874C227.913 40.118 227.717 39.516 227.325 39.068C226.933 38.62 226.303 38.396 225.435 38.396H216.489V49.988H211.953ZM216.489 34.28H223.797C225.421 34.28 226.681 33.874 227.577 33.062C228.473 32.222 228.921 31.088 228.921 29.66V29.324C228.921 27.896 228.473 26.776 227.577 25.964C226.709 25.124 225.449 24.704 223.797 24.704H216.489V34.28Z" fill="#FFF3E4"/>
<path d="M238.17 49.988V20.588H246.906L254.886 46.964H255.558V20.588H260.052V49.988H251.316L243.336 23.57H242.664V49.988H238.17Z" fill="#FFF3E4"/>
</svg>
