<svg width="189" height="31" viewBox="0 0 189 31" fill="none" xmlns="http://www.w3.org/2000/svg">
<path d="M0 29.988V0.588H4.536V25.872H18.69V29.988H0Z" fill="#9B7B4C"/>
<path d="M32.6694 30.576C29.0574 30.576 26.1874 29.568 24.0594 27.552C21.9314 25.508 20.8674 22.568 20.8674 18.732V11.844C20.8674 8.008 21.9314 5.082 24.0594 3.066C26.1874 1.022 29.0574 0 32.6694 0C36.2814 0 39.1514 1.022 41.2794 3.066C43.4354 5.082 44.5134 8.008 44.5134 11.844V18.732C44.5134 22.568 43.4354 25.508 41.2794 27.552C39.1514 29.568 36.2814 30.576 32.6694 30.576ZM32.6694 26.502C34.9934 26.502 36.7854 25.83 38.0454 24.486C39.3054 23.114 39.9354 21.252 39.9354 18.9V11.676C39.9354 9.324 39.3054 7.476 38.0454 6.132C36.7854 4.76 34.9934 4.074 32.6694 4.074C30.4014 4.074 28.6234 4.76 27.3354 6.132C26.0474 7.476 25.4034 9.324 25.4034 11.676V18.9C25.4034 21.252 26.0474 23.114 27.3354 24.486C28.6234 25.83 30.4014 26.502 32.6694 26.502Z" fill="#9B7B4C"/>
<path d="M54.9539 29.988L46.7639 0.588H51.4679L58.6079 27.132H59.1539L66.2519 0.588H70.9559L62.8079 29.988H54.9539Z" fill="#9B7B4C"/>
<path d="M83.3917 29.988V25.956H87.3397V4.62H83.3917V0.588H98.3017C100.066 0.588 101.606 0.896 102.922 1.512C104.238 2.1 105.26 2.954 105.988 4.074C106.744 5.166 107.122 6.468 107.122 7.98V8.4C107.122 9.744 106.87 10.85 106.366 11.718C105.862 12.586 105.246 13.258 104.518 13.734C103.818 14.21 103.146 14.546 102.502 14.742V15.414C103.146 15.582 103.832 15.918 104.56 16.422C105.316 16.898 105.946 17.57 106.45 18.438C106.982 19.306 107.248 20.44 107.248 21.84V22.26C107.248 23.884 106.87 25.27 106.114 26.418C105.358 27.566 104.308 28.448 102.964 29.064C101.648 29.68 100.122 29.988 98.3857 29.988H83.3917ZM91.9177 25.872H97.8397C99.3517 25.872 100.542 25.508 101.41 24.78C102.278 24.052 102.712 23.044 102.712 21.756V21.378C102.712 20.09 102.278 19.082 101.41 18.354C100.57 17.626 99.3797 17.262 97.8397 17.262H91.9177V25.872ZM91.9177 13.104H97.8397C99.2677 13.104 100.416 12.754 101.284 12.054C102.152 11.326 102.586 10.346 102.586 9.114V8.694C102.586 7.462 102.152 6.496 101.284 5.796C100.444 5.068 99.2957 4.704 97.8397 4.704H91.9177V13.104Z" fill="#9B7B4C"/>
<path d="M123.059 30.576C119.447 30.576 116.577 29.568 114.449 27.552C112.321 25.508 111.257 22.568 111.257 18.732V11.844C111.257 8.008 112.321 5.082 114.449 3.066C116.577 1.022 119.447 0 123.059 0C126.671 0 129.541 1.022 131.669 3.066C133.825 5.082 134.903 8.008 134.903 11.844V18.732C134.903 22.568 133.825 25.508 131.669 27.552C129.541 29.568 126.671 30.576 123.059 30.576ZM123.059 26.502C125.383 26.502 127.175 25.83 128.435 24.486C129.695 23.114 130.325 21.252 130.325 18.9V11.676C130.325 9.324 129.695 7.476 128.435 6.132C127.175 4.76 125.383 4.074 123.059 4.074C120.791 4.074 119.013 4.76 117.725 6.132C116.437 7.476 115.793 9.324 115.793 11.676V18.9C115.793 21.252 116.437 23.114 117.725 24.486C119.013 25.83 120.791 26.502 123.059 26.502Z" fill="#9B7B4C"/>
<path d="M139.953 29.988V0.588H152.301C154.121 0.588 155.717 0.91 157.089 1.554C158.489 2.17 159.567 3.066 160.323 4.242C161.107 5.418 161.499 6.818 161.499 8.442V8.904C161.499 10.752 161.051 12.236 160.155 13.356C159.287 14.448 158.223 15.218 156.963 15.666V16.338C158.027 16.394 158.881 16.758 159.525 17.43C160.169 18.074 160.491 19.012 160.491 20.244V29.988H155.913V20.874C155.913 20.118 155.717 19.516 155.325 19.068C154.933 18.62 154.303 18.396 153.435 18.396H144.489V29.988H139.953ZM144.489 14.28H151.797C153.421 14.28 154.681 13.874 155.577 13.062C156.473 12.222 156.921 11.088 156.921 9.66V9.324C156.921 7.896 156.473 6.776 155.577 5.964C154.709 5.124 153.449 4.704 151.797 4.704H144.489V14.28Z" fill="#9B7B4C"/>
<path d="M166.17 29.988V0.588H174.906L182.886 26.964H183.558V0.588H188.052V29.988H179.316L171.336 3.57H170.664V29.988H166.17Z" fill="#9B7B4C"/>
</svg>
