<svg width="9" height="16" viewBox="0 0 9 16" fill="none" xmlns="http://www.w3.org/2000/svg">
<path d="M5.68295 3.78092V5.94373H8.22125L7.81572 8.87254H5.68295V15.6013C5.47268 15.6313 5.2574 15.6539 5.03711 15.6689C4.81682 15.6839 4.59654 15.6914 4.37625 15.6914C4.11591 15.6914 3.86058 15.6814 3.61025 15.6614C3.35993 15.6413 3.11461 15.6113 2.8743 15.5712V8.87254H0.53125V5.94373H2.8743V3.28527C2.8743 2.46421 3.14965 1.76329 3.70037 1.18254C4.25109 0.601784 4.91195 0.311406 5.68295 0.311406C5.68295 0.311406 5.68545 0.311406 5.69046 0.311406C5.69547 0.311406 5.69797 0.311406 5.69797 0.311406H8.22125V2.83469H6.5691C6.32879 2.83469 6.12102 2.92731 5.94579 3.11255C5.77056 3.29779 5.68295 3.52058 5.68295 3.78092Z" fill="#1F1F1F"/>
</svg>
