<svg width="17" height="16" viewBox="0 0 17 16" fill="none" xmlns="http://www.w3.org/2000/svg">
<path d="M12.2097 0.146219H4.08013C3.5177 0.146219 2.98596 0.253592 2.48489 0.468335C1.99405 0.683079 1.56456 0.974516 1.19643 1.34265C0.828297 1.71078 0.536859 2.14027 0.322115 2.63111C0.107372 3.13218 0 3.66392 0 4.22635V11.6657C0 12.2281 0.107372 12.7547 0.322115 13.2456C0.536859 13.7364 0.828297 14.1659 1.19643 14.534C1.56456 14.9022 1.99405 15.1936 2.48489 15.4084C2.98596 15.6231 3.5177 15.7305 4.08013 15.7305H12.2097C12.7619 15.7305 13.2885 15.6231 13.7896 15.4084C14.2804 15.1936 14.7099 14.9022 15.0781 14.534C15.4462 14.1659 15.7376 13.7364 15.9524 13.2456C16.1671 12.7547 16.2745 12.2281 16.2745 11.6657V4.22635C16.2745 3.66392 16.1671 3.13218 15.9524 2.63111C15.7376 2.14027 15.4462 1.71078 15.0781 1.34265C14.7099 0.974516 14.2804 0.683079 13.7896 0.468335C13.2885 0.253592 12.7619 0.146219 12.2097 0.146219ZM1.44185 4.22635C1.44185 3.50031 1.6975 2.87909 2.20879 2.36268C2.72009 1.84627 3.34386 1.58807 4.08013 1.58807H12.2097C12.9357 1.58807 13.5544 1.84627 14.0657 2.36268C14.577 2.87909 14.8326 3.50031 14.8326 4.22635V11.6657C14.8326 12.3917 14.577 13.0129 14.0657 13.5293C13.5544 14.0458 12.9357 14.304 12.2097 14.304H4.08013C3.34386 14.304 2.72009 14.0458 2.20879 13.5293C1.6975 13.0129 1.44185 12.3917 1.44185 11.6657V4.22635ZM8.14492 11.727C8.66644 11.727 9.15728 11.6299 9.61744 11.4356C10.0776 11.2311 10.479 10.9575 10.8215 10.615C11.1641 10.2724 11.4325 9.87104 11.6268 9.41087C11.8313 8.95071 11.9336 8.45986 11.9336 7.93834C11.9336 7.41682 11.8313 6.92598 11.6268 6.46582C11.4325 6.00565 11.1641 5.60429 10.8215 5.26172C10.479 4.91915 10.0776 4.64561 9.61744 4.44109C9.15728 4.2468 8.66644 4.14965 8.14492 4.14965C7.61317 4.14965 7.11722 4.2468 6.65705 4.44109C6.20711 4.64561 5.8083 4.91915 5.46062 5.26172C5.11294 5.60429 4.84196 6.00565 4.64767 6.46582C4.45337 6.92598 4.35623 7.41682 4.35623 7.93834C4.35623 8.45986 4.45337 8.95071 4.64767 9.41087C4.84196 9.87104 5.11294 10.2724 5.46062 10.615C5.8083 10.9575 6.20711 11.2311 6.65705 11.4356C7.11722 11.6299 7.61317 11.727 8.14492 11.727ZM8.14492 5.5915C8.78915 5.5915 9.34135 5.82159 9.80151 6.28175C10.2617 6.74192 10.4918 7.29411 10.4918 7.93834C10.4918 8.5928 10.2617 9.14756 9.80151 9.60261C9.34135 10.0577 8.78915 10.2852 8.14492 10.2852C7.49046 10.2852 6.93315 10.0577 6.47299 9.60261C6.01282 9.14756 5.78274 8.5928 5.78274 7.93834C5.78274 7.29411 6.01282 6.74192 6.47299 6.28175C6.93315 5.82159 7.49046 5.5915 8.14492 5.5915ZM12.2711 4.76321C12.5574 4.76321 12.8003 4.6635 12.9997 4.4641C13.1991 4.2647 13.2988 4.02183 13.2988 3.73551C13.2988 3.45941 13.1991 3.22165 12.9997 3.02225C12.8003 2.82285 12.5574 2.72314 12.2711 2.72314C11.995 2.72314 11.7572 2.82285 11.5578 3.02225C11.3584 3.22165 11.2587 3.45941 11.2587 3.73551C11.2587 4.02183 11.3584 4.2647 11.5578 4.4641C11.7572 4.6635 11.995 4.76321 12.2711 4.76321Z" fill="#1F1F1F"/>
</svg>
