<svg width="8" height="16" viewBox="0 0 8 16" fill="none" xmlns="http://www.w3.org/2000/svg">
<path opacity="0.74" d="M5.30209 3.78092V5.94373H7.84039L7.43486 8.87254H5.30209V15.6013C5.09182 15.6313 4.87654 15.6539 4.65625 15.6689C4.43596 15.6839 4.21568 15.6914 3.99539 15.6914C3.73505 15.6914 3.47972 15.6814 3.22939 15.6614C2.97907 15.6413 2.73375 15.6113 2.49344 15.5712V8.87254H0.150391V5.94373H2.49344V3.28527C2.49344 2.46421 2.7688 1.76329 3.31951 1.18254C3.87023 0.601784 4.53109 0.311406 5.30209 0.311406C5.30209 0.311406 5.30459 0.311406 5.3096 0.311406C5.31461 0.311406 5.31711 0.311406 5.31711 0.311406H7.84039V2.83469H6.18824C5.94793 2.83469 5.74016 2.92731 5.56493 3.11255C5.3897 3.29779 5.30209 3.52058 5.30209 3.78092Z" fill="white"/>
</svg>
