<svg width="39" height="42" viewBox="0 0 39 42" fill="none" xmlns="http://www.w3.org/2000/svg">
<path d="M38.3169 8.22176C38.3169 8.19463 38.3101 8.18106 38.2965 8.18106C38.2829 8.18106 38.2762 8.1675 38.2762 8.14036C38.249 8.11323 38.2287 8.09288 38.2151 8.07931C38.2015 8.06575 38.1948 8.04539 38.1948 8.01826C38.1676 7.99113 38.1541 7.97756 38.1541 7.97756C38.1541 7.97756 38.1405 7.964 38.1134 7.93686C38.0862 7.93686 38.0659 7.9233 38.0523 7.89616C38.0387 7.86903 38.0048 7.85546 37.9506 7.85546C37.9506 7.85546 37.9506 7.84868 37.9506 7.83511C37.9506 7.82154 37.937 7.81476 37.9099 7.81476L19.5949 0.692265C19.5135 0.665131 19.4321 0.651562 19.3507 0.651562C19.2693 0.651562 19.1879 0.665131 19.1065 0.692265L0.79145 7.81476C0.764317 7.81476 0.75075 7.82154 0.75075 7.83511C0.75075 7.84868 0.75075 7.85546 0.75075 7.85546C0.723617 7.85546 0.696483 7.86903 0.66935 7.89616C0.642217 7.9233 0.615083 7.93686 0.58795 7.93686C0.58795 7.964 0.581167 7.97756 0.5676 7.97756C0.554033 7.97756 0.54725 7.99113 0.54725 8.01826C0.520117 8.04539 0.499767 8.06575 0.4862 8.07931C0.472633 8.09288 0.452283 8.11323 0.42515 8.14036C0.42515 8.1675 0.42515 8.18106 0.42515 8.18106C0.42515 8.18106 0.42515 8.19463 0.42515 8.22176C0.398017 8.2489 0.377667 8.28281 0.3641 8.32351C0.350533 8.36421 0.34375 8.4117 0.34375 8.46596V33.5372C0.34375 33.5372 0.34375 33.5439 0.34375 33.5575C0.34375 33.5711 0.34375 33.5779 0.34375 33.5779C0.34375 33.605 0.350533 33.6321 0.3641 33.6593C0.377667 33.6864 0.38445 33.7135 0.38445 33.7407C0.38445 33.7407 0.38445 33.7474 0.38445 33.761C0.38445 33.7746 0.398017 33.7949 0.42515 33.8221C0.42515 33.8492 0.431933 33.8695 0.4455 33.8831C0.459067 33.8967 0.46585 33.9035 0.46585 33.9035C0.492983 33.9306 0.513333 33.9577 0.5269 33.9849C0.540467 34.012 0.54725 34.0256 0.54725 34.0256C0.574383 34.0527 0.594733 34.0663 0.6083 34.0663C0.621867 34.0663 0.62865 34.0663 0.62865 34.0663C0.655783 34.0934 0.682917 34.1137 0.71005 34.1273C0.737183 34.1409 0.764317 34.1612 0.79145 34.1884L19.1065 41.3109C19.1607 41.338 19.2082 41.3516 19.2489 41.3516C19.2896 41.3516 19.3235 41.3516 19.3507 41.3516C19.4049 41.3516 19.4524 41.3516 19.4931 41.3516C19.5338 41.3516 19.5677 41.338 19.5949 41.3109L37.9099 34.1884C37.937 34.1612 37.9641 34.1409 37.9913 34.1273C38.0184 34.1137 38.0455 34.0934 38.0727 34.0663C38.0727 34.0663 38.0794 34.0663 38.093 34.0663C38.1066 34.0663 38.1269 34.0527 38.1541 34.0256C38.1541 34.0256 38.1608 34.012 38.1744 33.9849C38.188 33.9577 38.2083 33.9306 38.2355 33.9035C38.2355 33.9035 38.2422 33.8967 38.2558 33.8831C38.2694 33.8695 38.2762 33.8492 38.2762 33.8221C38.3033 33.7949 38.3169 33.7746 38.3169 33.761C38.3169 33.7474 38.3169 33.7407 38.3169 33.7407C38.3169 33.7135 38.3236 33.6864 38.3372 33.6593C38.3508 33.6321 38.3576 33.605 38.3576 33.5779C38.3576 33.5779 38.3576 33.5711 38.3576 33.5575C38.3576 33.5439 38.3576 33.5372 38.3576 33.5372V8.46596C38.3576 8.4117 38.3508 8.36421 38.3372 8.32351C38.3236 8.28281 38.3169 8.2489 38.3169 8.22176ZM19.3507 2.03536L35.7935 8.46596L28.5082 11.2743L12.0654 4.88436L19.3507 2.03536ZM18.6588 39.6829L1.72755 33.0895V9.44276L18.6588 16.0362V39.6829ZM19.3507 14.8559L2.90785 8.46596L10.1932 5.61696L26.636 12.0069L19.3507 14.8559ZM37.0145 33.0895L20.0426 39.6829V16.0362L37.0145 9.44276V33.0895Z" fill="#AE873E"/>
</svg>
