<svg width="18" height="16" viewBox="0 0 18 16" fill="none" xmlns="http://www.w3.org/2000/svg">
<path opacity="0.74" d="M12.8288 0.146219H4.69927C4.13685 0.146219 3.6051 0.253592 3.10403 0.468335C2.61319 0.683079 2.1837 0.974516 1.81557 1.34265C1.44744 1.71078 1.156 2.14027 0.941256 2.63111C0.726512 3.13218 0.619141 3.66392 0.619141 4.22635V11.6657C0.619141 12.2281 0.726512 12.7547 0.941256 13.2456C1.156 13.7364 1.44744 14.1659 1.81557 14.534C2.1837 14.9022 2.61319 15.1936 3.10403 15.4084C3.6051 15.6231 4.13685 15.7305 4.69927 15.7305H12.8288C13.381 15.7305 13.9077 15.6231 14.4087 15.4084C14.8996 15.1936 15.3291 14.9022 15.6972 14.534C16.0653 14.1659 16.3568 13.7364 16.5715 13.2456C16.7863 12.7547 16.8936 12.2281 16.8936 11.6657V4.22635C16.8936 3.66392 16.7863 3.13218 16.5715 2.63111C16.3568 2.14027 16.0653 1.71078 15.6972 1.34265C15.3291 0.974516 14.8996 0.683079 14.4087 0.468335C13.9077 0.253592 13.381 0.146219 12.8288 0.146219ZM2.06099 4.22635C2.06099 3.50031 2.31664 2.87909 2.82793 2.36268C3.33923 1.84627 3.96301 1.58807 4.69927 1.58807H12.8288C13.5549 1.58807 14.1736 1.84627 14.6848 2.36268C15.1961 2.87909 15.4518 3.50031 15.4518 4.22635V11.6657C15.4518 12.3917 15.1961 13.0129 14.6848 13.5293C14.1736 14.0458 13.5549 14.304 12.8288 14.304H4.69927C3.96301 14.304 3.33923 14.0458 2.82793 13.5293C2.31664 13.0129 2.06099 12.3917 2.06099 11.6657V4.22635ZM8.76406 11.727C9.28558 11.727 9.77642 11.6299 10.2366 11.4356C10.6968 11.2311 11.0981 10.9575 11.4407 10.615C11.7833 10.2724 12.0517 9.87104 12.246 9.41087C12.4505 8.95071 12.5527 8.45986 12.5527 7.93834C12.5527 7.41682 12.4505 6.92598 12.246 6.46582C12.0517 6.00565 11.7833 5.60429 11.4407 5.26172C11.0981 4.91915 10.6968 4.64561 10.2366 4.44109C9.77642 4.2468 9.28558 4.14965 8.76406 4.14965C8.23231 4.14965 7.73636 4.2468 7.27619 4.44109C6.82625 4.64561 6.42744 4.91915 6.07976 5.26172C5.73208 5.60429 5.4611 6.00565 5.26681 6.46582C5.07251 6.92598 4.97537 7.41682 4.97537 7.93834C4.97537 8.45986 5.07251 8.95071 5.26681 9.41087C5.4611 9.87104 5.73208 10.2724 6.07976 10.615C6.42744 10.9575 6.82625 11.2311 7.27619 11.4356C7.73636 11.6299 8.23231 11.727 8.76406 11.727ZM8.76406 5.5915C9.40829 5.5915 9.96049 5.82159 10.4207 6.28175C10.8808 6.74192 11.1109 7.29411 11.1109 7.93834C11.1109 8.5928 10.8808 9.14756 10.4207 9.60261C9.96049 10.0577 9.40829 10.2852 8.76406 10.2852C8.1096 10.2852 7.55229 10.0577 7.09213 9.60261C6.63196 9.14756 6.40188 8.5928 6.40188 7.93834C6.40188 7.29411 6.63196 6.74192 7.09213 6.28175C7.55229 5.82159 8.1096 5.5915 8.76406 5.5915ZM12.8902 4.76321C13.1765 4.76321 13.4194 4.6635 13.6188 4.4641C13.8182 4.2647 13.9179 4.02183 13.9179 3.73551C13.9179 3.45941 13.8182 3.22165 13.6188 3.02225C13.4194 2.82285 13.1765 2.72314 12.8902 2.72314C12.6141 2.72314 12.3764 2.82285 12.1769 3.02225C11.9775 3.22165 11.8778 3.45941 11.8778 3.73551C11.8778 4.02183 11.9775 4.2647 12.1769 4.4641C12.3764 4.6635 12.6141 4.76321 12.8902 4.76321Z" fill="white"/>
</svg>
