<svg width="16" height="16" viewBox="0 0 16 16" fill="none" xmlns="http://www.w3.org/2000/svg">
<path opacity="0.74" d="M6 6H8.76562V7.42188H8.8125C9 7.07812 9.32552 6.75521 9.78906 6.45312C10.2526 6.15104 10.8333 6 11.5312 6C12.2708 6 12.8646 6.10938 13.3125 6.32812C13.7604 6.53646 14.1094 6.82812 14.3594 7.20312C14.6094 7.57812 14.7812 8.02083 14.875 8.53125C14.9583 9.04167 15 9.59375 15 10.1875V15H12.1094V10.7344C12.1094 10.224 12.0443 9.70833 11.9141 9.1875C11.7839 8.66667 11.349 8.40625 10.6094 8.40625C9.85938 8.40625 9.38542 8.63802 9.1875 9.10156C8.98958 9.5651 8.89062 10.0833 8.89062 10.6562V15H6V6ZM1 6H4V15H1V6ZM4 3.5C4 3.91667 3.85417 4.27083 3.5625 4.5625C3.27083 4.85417 2.91667 5 2.5 5C2.08333 5 1.72917 4.85417 1.4375 4.5625C1.14583 4.27083 1 3.91667 1 3.5C1 3.08333 1.14583 2.72917 1.4375 2.4375C1.72917 2.14583 2.08333 2 2.5 2C2.91667 2 3.27083 2.14583 3.5625 2.4375C3.85417 2.72917 4 3.08333 4 3.5Z" fill="white"/>
</svg>
