<svg width="41" height="42" viewBox="0 0 41 42" fill="none" xmlns="http://www.w3.org/2000/svg">
<path d="M39.886 6.47056H0.814C0.705467 6.47056 0.603717 6.49091 0.50875 6.53161C0.413783 6.57231 0.3256 6.63336 0.2442 6.71476C0.1628 6.76903 0.10175 6.85043 0.06105 6.95896C0.02035 7.0675 0 7.17603 0 7.28456V34.3501C0 34.4586 0.02035 34.5603 0.06105 34.6553C0.10175 34.7503 0.1628 34.8385 0.2442 34.9199C0.3256 35.0013 0.413783 35.0623 0.50875 35.103C0.603717 35.1437 0.705467 35.1641 0.814 35.1641H39.886C39.9945 35.1641 40.1031 35.1437 40.2116 35.103C40.3201 35.0623 40.4015 35.0013 40.4558 34.9199C40.5372 34.8385 40.5983 34.7503 40.639 34.6553C40.6796 34.5603 40.7 34.4586 40.7 34.3501V7.28456C40.7 7.17603 40.6796 7.0675 40.639 6.95896C40.5983 6.85043 40.5372 6.76903 40.4558 6.71476C40.4015 6.63336 40.3201 6.57231 40.2116 6.53161C40.1031 6.49091 39.9945 6.47056 39.886 6.47056ZM39.072 8.09856V13.471H1.628V8.09856H39.072ZM1.628 33.5361V15.099H39.072V33.5361H1.628ZM35.816 28.937C35.816 29.0455 35.7957 29.154 35.755 29.2626C35.7142 29.3711 35.6532 29.4525 35.5718 29.5068C35.4904 29.5882 35.4022 29.6492 35.3073 29.6899C35.2123 29.7306 35.1105 29.751 35.002 29.751H25.234C25.1255 29.751 25.0237 29.7306 24.9287 29.6899C24.8338 29.6492 24.7456 29.5882 24.6642 29.5068C24.5828 29.4525 24.5217 29.3711 24.4811 29.2626C24.4403 29.154 24.42 29.0455 24.42 28.937C24.42 28.8284 24.4403 28.7267 24.4811 28.6317C24.5217 28.5367 24.5828 28.4486 24.6642 28.3672C24.7456 28.2858 24.8338 28.2247 24.9287 28.184C25.0237 28.1433 25.1255 28.123 25.234 28.123H35.002C35.1105 28.123 35.2123 28.1433 35.3073 28.184C35.4022 28.2247 35.4904 28.2858 35.5718 28.3672C35.6532 28.4486 35.7142 28.5367 35.755 28.6317C35.7957 28.7267 35.816 28.8284 35.816 28.937Z" fill="#AE873E"/>
</svg>
