<svg width="41" height="26" viewBox="0 0 41 26" fill="none" xmlns="http://www.w3.org/2000/svg">
<g clip-path="url(#clip0_134_608)">
<g clip-path="url(#clip1_134_608)">
<g clip-path="url(#clip2_134_608)">
<path opacity="0.07" d="M37.8226 0.910156H4.13836C2.34889 0.910156 0.980469 2.26433 0.980469 4.03516V22.7852C0.980469 24.556 2.45415 25.9102 4.13836 25.9102H37.8226C39.6121 25.9102 40.9805 24.556 40.9805 22.7852V4.03516C40.9805 2.26433 39.5068 0.910156 37.8226 0.910156Z" fill="white"/>
<path d="M37.8694 1.91016C39.0305 1.91016 39.9805 2.85107 39.9805 4.00107V22.8193C39.9805 23.9693 39.0305 24.9102 37.8694 24.9102H4.09158C2.93047 24.9102 1.98047 23.9693 1.98047 22.8193V4.00107C1.98047 2.85107 2.93047 1.91016 4.09158 1.91016H37.8694Z" fill="white"/>
<path d="M37.8694 2.41016C38.7589 2.41016 39.4805 3.13173 39.4805 4.00107V22.8193C39.4805 23.6886 38.7589 24.4102 37.8694 24.4102H4.09158C3.20207 24.4102 2.48047 23.6886 2.48047 22.8193V4.00107C2.48047 3.13173 3.20207 2.41016 4.09158 2.41016H37.8694Z" stroke="#111111" stroke-opacity="0.15"/>
<path d="M14.1492 13.4102V17.3745C14.1492 17.6959 13.9388 17.6959 13.6232 17.5888C11.6245 16.7316 10.4673 14.0531 11.2037 11.8031C11.6245 10.6244 12.4661 9.66016 13.6232 9.23159C14.044 9.0173 14.1492 9.12445 14.1492 9.44587V13.4102ZM16.2531 13.4102V9.44587C16.2531 9.12445 16.2531 9.12445 16.5687 9.23159C18.7778 10.0887 19.935 12.7673 19.0934 15.0173C18.6726 16.1959 17.831 17.1602 16.6739 17.5888C16.2531 17.8031 16.2531 17.6959 16.2531 17.3745V13.4102ZM23.8272 5.91016H15.2011C19.1986 5.91016 22.3545 9.23159 22.3545 13.4102C22.3545 17.5888 19.1986 20.9102 15.2011 20.9102H23.8272C27.8246 20.9102 30.9805 17.5888 30.9805 13.4102C30.9805 9.23159 27.8246 5.91016 23.8272 5.91016Z" fill="#3086C8"/>
</g>
</g>
</g>
<defs>
<clipPath id="clip0_134_608">
<rect width="40" height="25" fill="white" transform="translate(0.980469 0.910156)"/>
</clipPath>
<clipPath id="clip1_134_608">
<rect width="40" height="25" fill="white" transform="translate(0.980469 0.910156)"/>
</clipPath>
<clipPath id="clip2_134_608">
<rect width="40" height="25" fill="white" transform="translate(0.980469 0.910156)"/>
</clipPath>
</defs>
</svg>
