<svg width="22" height="22" viewBox="0 0 22 22" fill="none" xmlns="http://www.w3.org/2000/svg">
<g clip-path="url(#clip0_54_4222)">
<path fill-rule="evenodd" clip-rule="evenodd" d="M16.7625 15.4985L15.6297 14.3767C14.7672 13.5225 13.3717 13.5225 12.5092 14.3767C12.1168 14.7653 11.4838 14.7653 11.0914 14.3767L7.68949 11.0075C7.2971 10.6189 7.2971 9.99195 7.68949 9.60334C8.55199 8.74912 8.55199 7.36697 7.68949 6.51276L6.55675 5.39091C5.69424 4.53669 4.29868 4.53669 3.43617 5.39091C1.31877 7.48062 1.31877 10.8792 3.43247 12.9725C5.32407 14.846 7.21196 16.7157 9.10356 18.5891C9.59219 19.0511 10.5954 19.8503 12.0687 20.0923C12.2093 20.1142 12.524 20.1619 12.9312 20.1619C14.3156 20.1619 15.7038 19.6376 16.7588 18.5928C17.6213 17.7386 17.6213 16.3564 16.7588 15.5022L16.7625 15.4985Z" stroke="#FFF3E4" stroke-width="2.5" stroke-linecap="round" stroke-linejoin="round"/>
<path d="M11.8945 1.91365C12.2388 1.86599 12.5942 1.84399 12.9495 1.84399C17.2325 1.84399 20.701 5.28286 20.701 9.52096C20.701 9.76292 20.6899 10.0049 20.6677 10.2432" stroke="#FFF3E4" stroke-width="2.5" stroke-linecap="round" stroke-linejoin="round"/>
<path d="M12.2422 5.67194C12.4717 5.63162 12.7049 5.60962 12.9455 5.60962C15.1296 5.60962 16.899 7.36205 16.899 9.52509C16.899 9.77072 16.8768 10.0127 16.8324 10.2473" stroke="#FFF3E4" stroke-width="2.5" stroke-linecap="round" stroke-linejoin="round"/>
</g>
<defs>
<clipPath id="clip0_54_4222">
<rect width="20.8773" height="20.3279" fill="white" transform="translate(0.835938 0.836182)"/>
</clipPath>
</defs>
</svg>
