<svg width="37" height="42" viewBox="0 0 37 42" fill="none" xmlns="http://www.w3.org/2000/svg">
<path d="M15.827 41.3516C14.4432 41.3516 13.1001 41.2159 11.7977 40.9446C10.4953 40.7004 9.23355 40.3273 8.01255 39.8253C6.79155 39.3233 5.62482 38.6925 4.51235 37.9328C3.39989 37.2002 2.36882 36.359 1.41915 35.4094C1.25635 35.2466 1.17495 35.0431 1.17495 34.7989C1.17495 34.5547 1.25635 34.3512 1.41915 34.1884C1.58195 34.0256 1.77867 33.9442 2.0093 33.9442C2.23994 33.9442 2.43665 34.0256 2.59945 34.1884C3.49485 35.0838 4.44452 35.8706 5.44845 36.549C6.47952 37.2273 7.55129 37.7971 8.66375 38.2584C9.77622 38.7196 10.9294 39.0724 12.1233 39.3166C13.3443 39.5336 14.5788 39.6422 15.827 39.6422C17.048 39.6422 18.269 39.5336 19.49 39.3166C20.6838 39.0724 21.837 38.7196 22.9495 38.2584C24.0619 37.7971 25.1337 37.2273 26.1648 36.549C27.1687 35.8706 28.1184 35.0838 29.0138 34.1884C29.882 33.3201 30.6553 32.3704 31.3337 31.3394C32.012 30.3354 32.5818 29.2704 33.0431 28.1444C33.5043 27.0184 33.8571 25.8584 34.1013 24.6646C34.3455 23.4707 34.4676 22.2497 34.4676 21.0016C34.4676 19.7534 34.3455 18.5324 34.1013 17.3386C33.8571 16.1447 33.5043 14.9847 33.0431 13.8587C32.5818 12.7327 32.012 11.6677 31.3337 10.6638C30.6553 9.6327 29.882 8.68303 29.0138 7.81476C28.1184 6.91936 27.1687 6.1325 26.1648 5.45416C25.1337 4.77583 24.0619 4.20603 22.9495 3.74476C21.837 3.2835 20.6838 2.93076 19.49 2.68656C18.269 2.4695 17.048 2.36096 15.827 2.36096C14.5788 2.36096 13.3443 2.4695 12.1233 2.68656C10.9294 2.93076 9.77622 3.2835 8.66375 3.74476C7.55129 4.20603 6.47952 4.77583 5.44845 5.45416C4.44452 6.1325 3.49485 6.91936 2.59945 7.81476C2.43665 7.97756 2.23994 8.05896 2.0093 8.05896C1.77867 8.05896 1.58195 7.97756 1.41915 7.81476C1.25635 7.65196 1.17495 7.44846 1.17495 7.20426C1.17495 6.96006 1.25635 6.75656 1.41915 6.59376C2.36882 5.6441 3.39989 4.80296 4.51235 4.07036C5.62482 3.31063 6.79155 2.67978 8.01255 2.17781C9.23355 1.67585 10.4953 1.30276 11.7977 1.05856C13.1001 0.787228 14.4432 0.651562 15.827 0.651562C17.1836 0.651562 18.5132 0.787228 19.8156 1.05856C21.118 1.30276 22.3797 1.67585 23.6007 2.17781C24.8217 2.67978 25.9884 3.31063 27.1009 4.07036C28.2133 4.80296 29.2444 5.6441 30.1941 6.59376C31.1709 7.57056 32.0256 8.6152 32.7582 9.72766C33.4908 10.8401 34.108 12.0001 34.61 13.2075C35.112 14.4149 35.4986 15.6834 35.77 17.013C36.0413 18.3154 36.177 19.6449 36.177 21.0016C36.177 22.3582 36.0413 23.6878 35.77 24.9902C35.4986 26.3197 35.112 27.5882 34.61 28.7956C34.108 30.003 33.4908 31.163 32.7582 32.2755C32.0256 33.3879 31.1709 34.4326 30.1941 35.4094C29.2444 36.359 28.2133 37.2002 27.1009 37.9328C25.9884 38.6925 24.8217 39.3233 23.6007 39.8253C22.3797 40.3273 21.118 40.7004 19.8156 40.9446C18.5132 41.2159 17.1836 41.3516 15.827 41.3516ZM8.17535 9.11716H1.37845C1.16139 9.11716 0.971453 9.03576 0.808653 8.87296C0.645853 8.71016 0.564453 8.50666 0.564453 8.26246V1.50626C0.564453 1.26206 0.645853 1.05856 0.808653 0.895763C0.971453 0.732964 1.16139 0.651562 1.37845 0.651562C1.62265 0.651562 1.82615 0.732964 1.98895 0.895763C2.15175 1.05856 2.23315 1.26206 2.23315 1.50626V7.44846H8.17535C8.41955 7.44846 8.62305 7.52986 8.78585 7.69266C8.94865 7.85546 9.03005 8.04539 9.03005 8.26246C9.03005 8.50666 8.94865 8.71016 8.78585 8.87296C8.62305 9.03576 8.41955 9.11716 8.17535 9.11716Z" fill="#AE873E"/>
</svg>
