<svg width="17" height="16" viewBox="0 0 17 16" fill="none" xmlns="http://www.w3.org/2000/svg">
<path d="M12.6052 5.50122C12.6052 5.59315 12.6001 5.68509 12.5899 5.77702C12.5797 5.86896 12.5694 5.96089 12.5592 6.05282C12.5592 6.08347 12.5592 6.11411 12.5592 6.14476C12.5592 6.1754 12.5592 6.20605 12.5592 6.23669C12.5592 6.28776 12.5771 6.33118 12.6129 6.36693C12.6486 6.40268 12.692 6.42056 12.7431 6.42056C12.7635 6.42056 12.7865 6.418 12.812 6.4129C12.8376 6.40779 12.8606 6.40013 12.881 6.38991C12.9627 6.35927 13.0419 6.32862 13.1185 6.29798C13.1951 6.26733 13.2743 6.23669 13.356 6.20605C13.4275 6.18562 13.499 6.16263 13.5705 6.1371C13.642 6.11156 13.7135 6.08857 13.785 6.06814C13.8667 6.04772 13.9484 6.02984 14.0302 6.01452C14.1119 5.99919 14.1936 6.00175 14.2753 6.02218C14.4388 6.04261 14.5664 6.12943 14.6584 6.28266C14.7503 6.43588 14.7656 6.5891 14.7043 6.74232C14.6839 6.7934 14.6609 6.83681 14.6354 6.87256C14.6099 6.90832 14.5818 6.94662 14.5511 6.98748C14.5103 7.03856 14.4643 7.08452 14.4132 7.12538C14.3621 7.16624 14.3111 7.20199 14.26 7.23264C14.1987 7.2735 14.1374 7.31691 14.0761 7.36288C14.0148 7.40884 13.9484 7.45226 13.8769 7.49312C13.7748 7.56462 13.6726 7.63357 13.5705 7.69997C13.4683 7.76636 13.3611 7.83531 13.2487 7.90682C13.2079 7.93746 13.167 7.96811 13.1262 7.99875C13.0853 8.02939 13.0444 8.06004 13.0036 8.09068C12.9831 8.11111 12.9602 8.13154 12.9346 8.15197C12.9091 8.1724 12.8912 8.19283 12.881 8.21326C12.8401 8.25412 12.8095 8.30009 12.7891 8.35116C12.7686 8.40224 12.7635 8.45842 12.7737 8.51971C12.7737 8.57078 12.7788 8.62696 12.7891 8.68825C12.7993 8.74954 12.8095 8.80572 12.8197 8.8568C12.8708 9.03045 12.9346 9.20155 13.0112 9.37009C13.0878 9.53864 13.1721 9.69952 13.2641 9.85274C13.5092 10.2716 13.8054 10.6469 14.1527 10.9789C14.5 11.3109 14.878 11.6097 15.2866 11.8753C15.4092 11.9468 15.5292 12.0132 15.6467 12.0745C15.7641 12.1358 15.8842 12.1971 16.0067 12.2583C16.0272 12.2686 16.045 12.2788 16.0604 12.289C16.0757 12.2992 16.0936 12.3094 16.114 12.3196C16.1242 12.3298 16.137 12.3426 16.1523 12.3579C16.1676 12.3733 16.1804 12.386 16.1906 12.3962C16.211 12.4269 16.2212 12.455 16.2212 12.4805C16.2212 12.506 16.2161 12.529 16.2059 12.5495C16.1957 12.5801 16.1804 12.6031 16.16 12.6184C16.1395 12.6337 16.1191 12.6516 16.0987 12.672C16.0782 12.6925 16.0553 12.7103 16.0297 12.7257C16.0042 12.741 15.9812 12.7538 15.9608 12.764C15.8178 12.8457 15.6722 12.9172 15.5241 12.9785C15.376 13.0398 15.2202 13.0908 15.0568 13.1317C14.9853 13.1521 14.9112 13.1726 14.8346 13.193C14.758 13.2134 14.6839 13.2339 14.6124 13.2543C14.5613 13.2747 14.5154 13.2951 14.4745 13.3156C14.4337 13.336 14.3928 13.3564 14.3519 13.3769C14.2702 13.4075 14.2089 13.4535 14.1681 13.5148C14.1272 13.5761 14.1017 13.6476 14.0915 13.7293C14.0812 13.7701 14.0736 13.8135 14.0685 13.8595C14.0634 13.9055 14.0557 13.9489 14.0455 13.9898C14.0251 14.1021 13.9919 14.1838 13.9459 14.2349C13.8999 14.286 13.8208 14.3217 13.7084 14.3422C13.6675 14.3422 13.6292 14.3447 13.5935 14.3498C13.5577 14.3549 13.5194 14.3575 13.4786 14.3575C13.3866 14.3677 13.2921 14.3754 13.1951 14.3805C13.0981 14.3856 12.9985 14.3881 12.8963 14.3881C12.8963 14.3881 12.8938 14.3881 12.8887 14.3881C12.8835 14.3881 12.881 14.3881 12.881 14.3881C12.4928 14.4086 12.1149 14.4801 11.7471 14.6026C11.3794 14.7252 11.0321 14.8887 10.7052 15.093C10.6848 15.1032 10.6669 15.1134 10.6516 15.1236C10.6363 15.1338 10.6184 15.144 10.598 15.1542C10.4652 15.236 10.3298 15.3151 10.1919 15.3917C10.054 15.4684 9.91358 15.5322 9.77058 15.5833C9.60714 15.6548 9.44115 15.7084 9.2726 15.7442C9.10406 15.7799 8.93296 15.808 8.75931 15.8284C8.60608 15.8386 8.45797 15.8438 8.31496 15.8438C8.17195 15.8438 8.02384 15.8335 7.87062 15.8131C7.6561 15.7927 7.44415 15.7493 7.23474 15.6829C7.02534 15.6165 6.82359 15.5322 6.62951 15.43C6.53758 15.3892 6.4482 15.3407 6.36137 15.2845C6.27455 15.2283 6.18517 15.1747 6.09323 15.1236C6.09323 15.1236 6.09068 15.121 6.08557 15.1159C6.08046 15.1108 6.0728 15.1083 6.06259 15.1083C5.71528 14.8938 5.34755 14.7252 4.95938 14.6026C4.57122 14.4801 4.17284 14.4086 3.76425 14.3881C3.76425 14.3881 3.76169 14.3881 3.75659 14.3881C3.75148 14.3881 3.74893 14.3881 3.74893 14.3881C3.66721 14.3881 3.58293 14.3856 3.49611 14.3805C3.40928 14.3754 3.32501 14.3677 3.24329 14.3575C3.19222 14.3575 3.14114 14.3549 3.09007 14.3498C3.03899 14.3447 2.98792 14.332 2.93685 14.3115C2.87556 14.3013 2.82448 14.2707 2.78362 14.2196C2.74276 14.1685 2.71723 14.1123 2.70701 14.051C2.6968 14.0102 2.68914 13.9719 2.68403 13.9361C2.67892 13.9004 2.67637 13.8672 2.67637 13.8365C2.66615 13.8263 2.66104 13.8187 2.66104 13.8135C2.66104 13.8084 2.66104 13.8008 2.66104 13.7906C2.65083 13.6884 2.62019 13.599 2.56911 13.5224C2.51804 13.4458 2.44143 13.3871 2.33928 13.3462C2.2882 13.3156 2.23202 13.29 2.17073 13.2696C2.10944 13.2492 2.04815 13.2287 1.98687 13.2083C1.88472 13.1879 1.78001 13.1624 1.67276 13.1317C1.5655 13.1011 1.4608 13.0653 1.35865 13.0245C1.26672 12.9938 1.17734 12.9581 1.09051 12.9172C1.00369 12.8763 0.914307 12.8355 0.822373 12.7946C0.801943 12.7742 0.77896 12.7563 0.753423 12.741C0.727886 12.7257 0.704902 12.7129 0.684473 12.7027C0.664043 12.6925 0.646167 12.6797 0.630845 12.6644C0.615522 12.6491 0.602754 12.6363 0.592539 12.6261C0.55168 12.575 0.53125 12.5239 0.53125 12.4729C0.53125 12.4218 0.556787 12.3758 0.607861 12.335C0.638506 12.3145 0.66915 12.2966 0.699795 12.2813C0.730439 12.266 0.761084 12.2481 0.791728 12.2277C1.01646 12.1255 1.23352 12.0081 1.44292 11.8753C1.65233 11.7425 1.85407 11.5995 2.04815 11.4463C2.34438 11.2215 2.61508 10.9713 2.86023 10.6955C3.10539 10.4197 3.3199 10.1183 3.50377 9.79146C3.57527 9.67909 3.63912 9.56162 3.6953 9.43904C3.75148 9.31646 3.8 9.18878 3.84086 9.05599C3.8715 8.97427 3.89959 8.89 3.92513 8.80317C3.95067 8.71634 3.96344 8.63207 3.96344 8.55035C3.97365 8.47885 3.96854 8.41245 3.94812 8.35116C3.92769 8.28987 3.89193 8.2388 3.84086 8.19794C3.81021 8.15708 3.77702 8.12388 3.74126 8.09834C3.70551 8.07281 3.67231 8.04472 3.64167 8.01407C3.58038 7.97321 3.52165 7.93235 3.46546 7.89149C3.40928 7.85064 3.35565 7.81488 3.30458 7.78424C3.182 7.70252 3.05942 7.6208 2.93685 7.53908C2.81427 7.45736 2.69169 7.37564 2.56911 7.29393C2.50782 7.26328 2.45164 7.22753 2.40057 7.18667C2.34949 7.14581 2.30353 7.10495 2.26267 7.06409C2.23202 7.02323 2.20138 6.98748 2.17073 6.95684C2.14009 6.92619 2.10944 6.89044 2.0788 6.84958C2.02772 6.75765 2.00219 6.66827 2.00219 6.58144C2.00219 6.49461 2.01751 6.40523 2.04815 6.3133C2.06858 6.26223 2.09923 6.21626 2.14009 6.1754C2.18095 6.13454 2.22691 6.09879 2.27799 6.06814C2.35971 6.0375 2.43887 6.01707 2.51548 6.00686C2.59209 5.99664 2.66615 6.00175 2.73766 6.02218C2.82959 6.03239 2.91642 6.05027 2.99813 6.07581C3.07985 6.10134 3.15646 6.12943 3.22797 6.16008C3.30969 6.19072 3.39141 6.22137 3.47312 6.25201C3.55484 6.28266 3.63656 6.3133 3.71828 6.34395C3.75914 6.35416 3.79745 6.36693 3.8332 6.38225C3.86895 6.39757 3.90726 6.40523 3.94812 6.40523C3.95833 6.41545 3.96854 6.42056 3.97876 6.42056C3.98897 6.42056 3.99919 6.42056 4.0094 6.42056C4.06048 6.42056 4.10134 6.41034 4.13198 6.38991C4.16263 6.36948 4.17795 6.32862 4.17795 6.26733C4.17795 6.23669 4.17795 6.20349 4.17795 6.16774C4.17795 6.13199 4.17795 6.09879 4.17795 6.06814C4.16773 5.91492 4.16007 5.7617 4.15497 5.60848C4.14986 5.45525 4.1422 5.30203 4.13198 5.14881C4.12177 4.79129 4.12432 4.43122 4.13964 4.06859C4.15497 3.70596 4.2137 3.34589 4.31585 2.98837C4.36692 2.77386 4.44354 2.56445 4.54568 2.36016C4.64783 2.15586 4.7653 1.96689 4.8981 1.79323C5.1739 1.41528 5.49566 1.10628 5.8634 0.866236C6.23113 0.626187 6.63462 0.444874 7.07386 0.322295C7.31901 0.250792 7.56417 0.202271 7.80933 0.176734C8.05448 0.151196 8.29964 0.143536 8.5448 0.15375C8.78995 0.163965 9.02745 0.189503 9.25728 0.230362C9.48711 0.271221 9.71439 0.33251 9.93912 0.414229C10.2047 0.506163 10.4575 0.621079 10.6976 0.75898C10.9376 0.89688 11.1598 1.06287 11.3641 1.25695C11.599 1.47147 11.8033 1.70896 11.977 1.96944C12.1506 2.22992 12.2834 2.51338 12.3754 2.81982C12.4264 2.96283 12.4647 3.10584 12.4903 3.24885C12.5158 3.39186 12.5388 3.53486 12.5592 3.67787C12.5899 3.98432 12.6052 4.28821 12.6052 4.58955C12.6052 4.89088 12.6052 5.19478 12.6052 5.50122Z" fill="#1F1F1F"/>
</svg>
