<svg width="37" height="42" viewBox="0 0 37 42" fill="none" xmlns="http://www.w3.org/2000/svg">
<path d="M32.2698 14.571C32.2698 12.6445 31.9035 10.8401 31.1709 9.15786C30.4383 7.4756 29.4479 6.00361 28.1998 4.74191C26.9516 3.48021 25.4729 2.48306 23.7635 1.75046C22.0812 1.01786 20.2768 0.651562 18.3504 0.651562C16.4239 0.651562 14.6195 1.01786 12.9373 1.75046C11.255 2.48306 9.783 3.48021 8.5213 4.74191C7.2596 6.00361 6.26245 7.4756 5.52985 9.15786C4.79725 10.8401 4.43095 12.6445 4.43095 14.571C3.42702 14.7066 2.53162 15.1272 1.74475 15.8327C0.957886 16.5381 0.564453 17.637 0.564453 19.1294V26.4147C0.564453 28.1241 1.05285 29.3247 2.02965 30.0166C3.00645 30.7085 4.06465 31.0545 5.20425 31.0545H7.44275C7.65982 31.0545 7.84297 30.9798 7.9922 30.8306C8.14144 30.6814 8.21605 30.4982 8.21605 30.2812V15.3036C8.21605 15.0865 8.14144 14.9033 7.9922 14.7541C7.84297 14.6049 7.65982 14.5303 7.44275 14.5303H5.97755C5.97755 12.8209 6.30315 11.22 6.95435 9.72766C7.60555 8.20819 8.48739 6.89223 9.59985 5.77976C10.7123 4.6673 12.0283 3.78546 13.5478 3.13426C15.0401 2.48306 16.641 2.15746 18.3504 2.15746C20.0598 2.15746 21.6606 2.48306 23.153 3.13426C24.6724 3.78546 25.9884 4.6673 27.1009 5.77976C28.2133 6.89223 29.0952 8.20819 29.7464 9.72766C30.3976 11.22 30.7232 12.8209 30.7232 14.5303H29.258C29.0409 14.5303 28.8577 14.6049 28.7085 14.7541C28.5593 14.9033 28.4847 15.0865 28.4847 15.3036V30.2405C28.4847 30.4575 28.5593 30.6407 28.7085 30.7899C28.8577 30.9391 29.0409 31.0138 29.258 31.0138H30.7232C30.6146 33.6728 29.9159 35.4433 28.6271 36.3251C27.3383 37.2069 25.4186 37.7021 22.8681 37.8107V37.2816C22.8681 36.8746 22.7188 36.515 22.4204 36.203C22.1219 35.891 21.7556 35.735 21.3215 35.735H16.4375C16.0305 35.735 15.6709 35.891 15.3589 36.203C15.0469 36.515 14.8909 36.8746 14.8909 37.2816V39.805C14.8909 40.2391 15.0469 40.6054 15.3589 40.9039C15.6709 41.2023 16.0305 41.3516 16.4375 41.3516H21.3215C21.7556 41.3516 22.1219 41.2023 22.4204 40.9039C22.7188 40.6054 22.8681 40.2391 22.8681 39.805V39.3573C25.3372 39.2487 27.4943 38.7196 29.3394 37.77C31.1844 36.8203 32.1612 34.5547 32.2698 30.9731C33.2737 30.8645 34.1691 30.4575 34.956 29.7521C35.7428 29.0466 36.1363 27.9341 36.1363 26.4147V19.1294C36.1363 17.6099 35.7428 16.5042 34.956 15.8123C34.1691 15.1204 33.2737 14.7066 32.2698 14.571ZM6.66945 16.0362V29.4672H5.16355C4.59375 29.4672 3.93577 29.2908 3.1896 28.9381C2.44344 28.5853 2.07035 27.7306 2.07035 26.374V19.1294C2.07035 17.7727 2.43665 16.918 3.16925 16.5653C3.90185 16.2125 4.56662 16.0362 5.16355 16.0362H6.66945ZM21.3215 38.6247V39.805H16.4375V37.2816H21.3215V38.6247ZM34.5897 26.4147C34.5897 27.7442 34.2234 28.5921 33.4908 28.9584C32.7582 29.3247 32.0934 29.5079 31.4965 29.5079H30.0313V16.0769H31.5372C32.107 16.0769 32.7649 16.2532 33.5111 16.606C34.2573 16.9587 34.6304 17.8134 34.6304 19.1701L34.5897 26.4147Z" fill="#AE873E"/>
</svg>
